<svg width="280" height="239" viewBox="0 0 280 239" fill="none" xmlns="http://www.w3.org/2000/svg">
<g clip-path="url(#clip0)">
<path d="M58.8314 30.3872C68.0465 31.0067 71.9048 24.718 76.2292 16.6359C88.0815 -5.48666 114.482 -3.357 123.337 10.2646C129.609 19.9159 143.136 17.9278 154.074 14.1522C164.841 10.4357 183.189 6.86656 197.808 11.3088C210.574 15.1905 215.807 29.1838 227.447 28.3225C252.833 26.4465 265.629 51.501 261.028 62.4325C258.025 69.5648 256.538 77.5466 258.975 84.8853C261.659 92.9674 267.8 99.3682 272.762 106.318C277.724 113.267 281.718 121.957 279.252 130.11C277.139 137.089 270.845 141.914 266.939 148.079C254.804 167.234 266.809 196.595 250.639 212.565C239.064 223.992 220.197 221.355 204.002 223.538C190.498 225.355 177.791 231.03 164.345 233.248C137.119 237.749 109.627 227.838 82.0285 227.555C72.306 227.455 62.4006 228.54 52.9849 226.145C40.4188 222.948 29.7287 213.279 25.3689 201.179C19.3514 184.484 25.0504 165.158 18.2599 148.758C12.7261 135.396 -0.813408 124.523 0.0420316 110.105C0.572994 101.126 6.70266 93.6223 10.9209 85.6582C17.1862 73.83 8.8855 27.0482 58.8314 30.3872ZM139.172 8.71305C136.747 8.71305 134.788 10.2174 134.788 12.0698C134.788 13.9222 136.759 15.2672 139.172 15.4265C147.048 15.9456 147.048 12.7659 147.048 10.9076C147.048 7.94614 141.591 8.71305 139.172 8.71305ZM219.152 23.0367C221.259 24.777 223.943 25.8152 226.68 25.9568C227.412 25.9922 228.208 25.945 228.769 25.4849C229.465 24.9126 229.542 23.7387 228.922 23.0838C228.533 22.6709 227.966 22.488 227.436 22.2697C226.533 21.904 225.654 21.3789 225.141 20.5589C224.993 20.323 224.863 20.0457 224.621 19.91C223.105 19.0546 216.38 20.7477 219.152 23.0367ZM232.568 26.004C233.264 26.2459 234.019 26.0217 234.721 25.7975C235.17 25.6501 235.719 25.3315 235.601 24.8831C235.542 24.6649 235.341 24.5233 235.14 24.4171C234.22 23.9275 233.028 23.5617 232.108 24.1929C231.182 24.8183 231.878 25.768 232.568 26.004ZM264.597 89.2863C264.715 90.3304 265.364 91.233 265.983 92.0825C267.187 93.7226 268.408 95.3862 269.995 96.6663C270.668 97.2091 271.446 97.6928 272.314 97.7223C273.104 97.7518 273.859 97.392 274.496 96.9318C276.054 95.8168 277.104 94.0293 277.322 92.1356C277.617 89.5399 276.408 87.0091 275.004 84.7969C274.131 83.4282 273.116 82.0596 271.665 81.328C269.222 80.0951 267.612 81.1688 266.927 83.3338C266.308 85.3278 264.343 87.0681 264.597 89.2863ZM4.79119 149.755C3.50509 150.887 4.6673 154.203 5.04488 156.391C5.15697 157.046 5.31036 157.725 5.72333 158.25C6.28969 158.963 7.23362 159.258 8.11266 159.518C9.67605 159.972 11.5757 160.356 12.7733 159.258C13.6583 158.444 13.7881 157.111 13.7822 155.913C13.7822 154.816 13.7232 153.725 13.6052 152.633C13.5521 152.108 13.4754 151.572 13.1922 151.123C12.8323 150.551 12.1952 150.221 11.5757 149.955C9.33977 149.011 6.0773 148.628 4.79119 149.755ZM83.3854 232.8C82.6244 232.953 81.7158 233.283 81.6037 234.044C81.5153 234.676 82.0403 235.212 82.5536 235.59C86.7482 238.722 92.4 238.923 97.6506 238.994C98.2642 239 98.9013 239.006 99.4618 238.77C100.583 238.298 101.125 236.817 100.6 235.726C100.412 235.324 100.111 234.988 99.7921 234.681C95.5798 230.57 88.6419 231.749 83.3854 232.8ZM188.197 230.682C183.46 234.145 188.25 237.242 194.233 234.947C197.454 233.708 200.545 232.487 203.849 231.661C204.917 231.395 211.365 229.997 211.365 228.552C211.365 224.712 204.103 225.62 199.53 226.257C195.843 226.77 192.103 227.826 188.197 230.682Z" fill="#ECF3FF"/>
<path d="M99.1778 220.671C111.771 220.671 121.98 219.717 121.98 218.541C121.98 217.365 111.771 216.411 99.1778 216.411C86.5847 216.411 76.376 217.365 76.376 218.541C76.376 219.717 86.5847 220.671 99.1778 220.671Z" fill="#C8DBFB"/>
<path d="M216.314 220.671C228.907 220.671 239.116 219.717 239.116 218.541C239.116 217.365 228.907 216.411 216.314 216.411C203.721 216.411 193.512 217.365 193.512 218.541C193.512 219.717 203.721 220.671 216.314 220.671Z" fill="#C8DBFB"/>
<path d="M264.49 68.5682C264.425 68.1729 264.354 67.7836 264.278 67.406" stroke="#C8DBFB" stroke-linecap="round" stroke-linejoin="round"/>
<path d="M263.717 65.1229C259.652 51.2713 246.679 52.6104 234.957 52.634C222.338 52.6576 26.9906 53.0647 26.9906 53.0647C7.35682 53.106 9.26238 81.4464 24.6308 81.411C33.4684 81.3933 36.8311 97.9881 21.5512 98.0176C12.3833 98.0353 12.0883 109.657 18.2533 111.987" stroke="#C8DBFB" stroke-linecap="round" stroke-linejoin="round" stroke-dasharray="3.99 3.99"/>
<path d="M19.3861 112.288C19.7578 112.353 20.1531 112.388 20.566 112.382" stroke="#C8DBFB" stroke-linecap="round" stroke-linejoin="round"/>
<path d="M22.9731 111.846C23.2327 113.385 22.2002 114.843 20.6604 115.108C19.1207 115.368 17.6635 114.335 17.398 112.796C17.1384 111.256 18.1708 109.799 19.7106 109.533C21.2504 109.274 22.7135 110.312 22.9731 111.846Z" fill="#5193F4"/>
<path d="M267.269 69.8424C266.992 71.3762 265.517 72.3968 263.983 72.1136C262.449 71.8364 261.428 70.3615 261.711 68.8277C261.989 67.2939 263.464 66.2733 264.997 66.5565C266.531 66.8337 267.546 68.3027 267.269 69.8424Z" fill="#5193F4"/>
<path d="M51.7747 91.2098C51.3676 93.5046 50.7717 95.7464 50.0461 97.9586C48.4827 102.731 46.3235 107.327 44.1406 111.863C43.002 114.235 38.3826 119.721 35.9048 120.765C36.1939 114.577 36.2175 107.35 35.4977 101.103C34.8075 95.0857 36.9726 90.5255 34.6128 84.9447C34.3119 84.2309 33.9992 83.5171 33.6866 82.8032C32.5125 80.1485 31.3503 77.482 30.9846 74.6209C30.5126 70.9928 31.6394 66.8573 34.778 64.9695C37.0375 63.6127 39.9814 63.6835 42.3943 64.7513C44.8073 65.819 46.7423 67.7717 48.2113 69.9604C52.3233 76.0721 53.0667 83.9654 51.7747 91.2098Z" fill="#5193F4"/>
<path d="M40.8014 71.1698C45.4208 77.6945 45.822 85.2928 46.2232 93.2746C46.6243 101.256 44.707 109.344 40.7601 116.294" stroke="#0B43A4" stroke-miterlimit="10" stroke-linecap="round" stroke-linejoin="round"/>
<path d="M40.6067 191.504C37.3679 188.643 34.0936 185.741 31.6984 182.142C29.6158 179.01 28.2707 175.452 26.4537 172.155C25.2796 170.025 23.8873 167.966 23.2089 165.63C22.5304 163.294 22.6897 160.521 24.3534 158.745C26.0879 156.887 29.0672 156.604 31.4211 157.56C33.775 158.515 35.5744 160.498 36.9431 162.633C38.7661 165.471 39.9873 168.698 40.4947 172.031C40.9548 175.051 40.8368 178.142 41.3088 181.163C41.7454 183.977 42.6952 186.679 43.8869 189.257C44.9665 191.593 47.7098 195.764 48.406 198.159C46.465 199.121 41.9872 192.726 40.6067 191.504Z" fill="#00AD9F"/>
<path d="M29.2854 161.831C32.365 163.176 33.5862 166.851 34.2293 170.149C34.9608 173.901 34.7956 177.965 36.5183 181.381C39.7631 187.817 43.9813 195.138 47.1198 197.327" stroke="#00AD9F" stroke-miterlimit="10" stroke-linecap="round" stroke-linejoin="round"/>
<path d="M24.6721 182.703C21.9878 181.641 18.3949 181.204 16.6722 183.523C15.2327 185.463 15.9761 188.218 16.9731 190.419C17.8168 192.277 18.8846 194.171 20.6545 195.18C21.8639 195.87 23.2857 196.076 24.6721 196.242C28.5363 196.702 32.4241 196.926 36.3178 196.914C40.8251 196.902 46.2881 198.743 50.0226 201.557C45.2321 192.661 33.7161 186.272 24.6721 182.703Z" fill="#0056EC"/>
<path d="M19.9583 188.484C23.38 188.631 26.8313 188.867 30.1114 189.841C33.4683 190.832 46.3825 196.761 48.4001 199.28" stroke="#0B43A4" stroke-miterlimit="10" stroke-linecap="round" stroke-linejoin="round"/>
<path d="M53.9811 164.438C50.4827 158.964 44.5005 155.141 38.0641 154.274C33.309 153.637 28.4183 154.521 23.7222 153.536C18.7901 152.504 14.3419 149.324 11.7696 144.988C9.19743 140.652 8.52488 135.237 9.97028 130.405C11.0735 126.736 13.5926 123.255 17.2386 122.081C19.2267 121.444 21.3978 121.532 23.4272 122.016C25.3033 122.464 27.0437 123.249 28.6483 124.27C32.3179 126.594 35.2854 130.169 37.5154 133.968C39.539 137.419 44.53 142.794 47.9282 146.292C49.9222 148.333 51.3676 149.731 51.3676 149.731C53.6921 152.634 52.6006 160.987 53.9811 164.438Z" fill="#52D2BC"/>
<path d="M16.1708 132.694C27.5983 137.85 40.0582 144.611 48.1642 154.179" stroke="#00AD9F" stroke-miterlimit="10" stroke-linecap="round" stroke-linejoin="round"/>
<path opacity="0.2" d="M49.2614 152.893C49.2614 152.893 32.2352 139.089 28.6423 124.276C32.3119 126.6 35.2794 130.175 37.5094 133.974C39.533 137.425 44.524 142.8 47.9222 146.298C48.3233 148.15 48.7658 150.327 49.2614 152.893Z" fill="#5275A0"/>
<path opacity="0.2" d="M50.0461 97.9586C48.4827 102.731 46.3234 107.327 44.1406 111.863C43.002 114.235 38.3826 119.721 35.9048 120.765C36.1938 114.577 36.2174 107.35 35.4977 101.103C34.8074 95.0856 36.9726 90.5255 34.6128 84.9447C34.3119 84.2309 33.9992 83.517 33.6865 82.8032C33.9048 82.874 34.1172 82.9507 34.3237 83.0392C38.2056 84.7028 39.9991 88.8088 40.3295 92.7967C40.6067 96.0885 40.0109 99.3863 39.5684 102.66C39.3619 104.171 39.1967 105.716 39.5212 107.197C39.5271 107.215 39.533 107.226 39.533 107.244C39.9401 109.008 42.5182 108.908 42.8486 107.12L43.881 101.64C44.1878 99.9998 44.5241 98.2831 45.8692 97.1386C46.4001 96.6844 47.0845 96.4012 47.7806 96.4248C48.8897 96.4661 49.5859 97.115 50.0461 97.9586Z" fill="#5275A0"/>
<path d="M49.2614 149.436C46.5712 135.39 45.1553 133.225 46.3411 129.703C47.8514 125.214 47.0019 120.706 48.4237 116.188C49.8455 111.675 50.813 106.819 49.6685 102.224C49.3086 100.773 48.5712 99.1916 46.8249 99.1267C46.1228 99.1031 45.4444 99.3862 44.9134 99.8405C43.5683 100.985 43.232 102.702 42.9253 104.342L41.8987 109.822C41.5625 111.604 38.9902 111.71 38.5832 109.94C38.5773 109.922 38.5773 109.911 38.5714 109.893C38.241 108.412 38.4121 106.867 38.6127 105.356C39.0551 102.076 39.651 98.7845 39.3796 95.4868C39.0492 91.4988 37.2558 87.3929 33.3679 85.7352C31.9933 85.1452 30.4358 85.0154 28.9846 85.3871C24.9315 86.4254 23.8814 90.3897 24.4773 93.7701C24.8961 96.1534 26.0112 98.342 27.02 100.537C29.486 105.899 27.6748 110.819 28.017 116.713C28.961 132.989 49.2614 149.436 49.2614 149.436Z" fill="#7EE8D4"/>
<path d="M31.1733 89.6465C33.1733 99.64 35.1969 109.704 39.0788 119.131C40.2174 121.892 40.772 125.532 47.3618 133.048" stroke="#00AD9F" stroke-miterlimit="10" stroke-linecap="round" stroke-linejoin="round"/>
<path d="M109.195 92.2068C107.125 89.8411 105.213 87.4342 103.201 85.1158C101.897 83.6114 100.552 82.1425 99.0893 80.7503C98.3636 80.0541 97.6144 79.3816 96.8238 78.7268C92.1514 74.8686 86.9362 71.6653 81.361 69.2819C77.9983 67.8425 74.4467 66.6567 71.5913 64.3619C68.7359 62.0729 66.6829 58.3092 67.6327 54.7755C68.323 52.2269 70.4881 50.2448 72.9718 49.3363C75.4497 48.4337 78.1989 48.5045 80.777 49.059C87.9745 50.6105 93.9862 55.7842 98.0746 61.9019C98.1454 62.008 98.222 62.1201 98.2928 62.2322C101.29 66.8042 103.384 71.8894 105.207 77.0691C105.791 78.7327 106.346 80.4081 106.894 82.0776C107.72 84.573 110.257 89.735 109.195 92.2068Z" fill="#5193F4"/>
<path d="M76.2698 55.0704C84.1221 56.5689 89.6795 61.7662 95.5024 67.2408C101.325 72.7154 105.549 79.8713 107.526 87.6171" stroke="#0B43A4" stroke-miterlimit="10" stroke-linecap="round" stroke-linejoin="round"/>
<path opacity="0.2" d="M103.201 85.1157C103.136 85.9298 103.16 86.7439 103.313 87.5699C101.349 87.1215 99.9861 84.0715 99.0894 80.7502C98.2103 77.5233 97.7738 74.0309 97.6381 72.4203C97.3726 69.0223 97.5909 65.5771 98.2929 62.2322C101.29 66.8042 103.384 71.8894 105.207 77.069C104.582 78.9273 104.045 80.8092 103.603 82.7088C103.414 83.517 103.266 84.3134 103.201 85.1157Z" fill="#5275A0"/>
<path d="M116.824 56.7694C116.157 59.7131 114.381 62.2558 112.812 64.8397C111.986 66.1965 111.213 67.5947 110.493 69.0105C108.187 73.5412 106.428 78.3492 105.266 83.2987C104.883 84.921 104.67 86.5138 104.977 88.1598C101.107 87.2749 99.5613 76.2726 99.3018 73.0044C98.8357 67.1168 99.8386 61.0818 102.263 55.6898C103.319 53.3242 104.688 50.9998 106.794 49.4837C108.894 47.9676 111.868 47.4366 114.092 48.7581C115.431 49.5545 116.293 50.8759 116.711 52.3803C117.124 53.7843 117.142 55.3476 116.824 56.7694Z" fill="#52D2BC"/>
<path d="M103.502 84.9151C101.095 78.8683 102.558 66.0726 106.417 58.0318C107.579 55.6072 109.237 53.3359 111.555 51.985" stroke="#00AD9F" stroke-miterlimit="10" stroke-linecap="round" stroke-linejoin="round"/>
<path opacity="0.2" d="M116.824 56.7697C116.157 59.7135 114.381 62.2561 112.812 64.84C111.986 66.1969 111.213 67.595 110.493 69.0109C109.437 67.2293 108.712 65.2648 108.511 63.2118C108.187 59.7843 109.496 56.1149 112.281 54.0973C113.585 53.1593 115.113 52.6225 116.711 52.3806C117.124 53.7847 117.142 55.348 116.824 56.7697Z" fill="#5275A0"/>
<path d="M139.153 82.3784C138.971 83.5052 138.634 84.5907 138.15 85.6348C136.434 89.3514 132.829 92.5371 127.431 95.1328C127.431 95.1328 127.13 89.257 127.065 87.6819C126.8 80.9449 119.49 77.2224 114.865 72.3082C112.511 69.801 110.723 66.639 110.393 63.2114C110.068 59.7839 111.378 56.1145 114.163 54.097C116.499 52.4097 119.555 52.044 122.434 52.2623C127.071 52.6339 131.749 54.5748 134.634 58.197C134.758 58.3327 134.864 58.4802 134.971 58.6218C136.735 61.0346 137.643 63.9725 138.31 66.8985C139.466 71.9661 139.985 77.2401 139.153 82.3784Z" fill="#00AD9F"/>
<path d="M116.157 57.7074C121.219 60.3267 126.286 63.4887 129.23 68.3616C133.342 75.1635 132.446 84.0126 129.278 91.2982" stroke="#00AD9F" stroke-miterlimit="10" stroke-linecap="round" stroke-linejoin="round"/>
<path d="M223.812 125.827C227.039 120.518 225.388 113.686 226.514 107.58C227.376 102.884 229.989 98.5308 233.73 95.5575C236.078 93.6933 239.375 92.36 242.024 93.7582C242.597 94.0591 243.281 94.4897 243.836 94.1475C244.166 93.947 244.296 93.534 244.378 93.1565C245.051 89.8587 243.464 86.2542 244.762 83.1453C245.458 81.4699 246.903 80.2192 248.431 79.2458C251.381 77.3639 254.832 76.2844 258.325 76.1428C259.251 76.1074 260.219 76.1428 261.05 76.5557C262.549 77.3049 263.233 79.175 263.033 80.8386C262.832 82.5023 261.912 83.9948 260.897 85.328C257.511 89.7584 252.549 93.5812 251.894 99.1148C251.812 99.8109 251.812 100.554 252.13 101.18C252.443 101.787 253.021 102.218 253.346 102.814C254.39 104.731 252.372 106.908 250.408 107.846C248.608 108.707 246.661 109.244 244.673 109.433C243.305 109.563 241.765 109.592 240.833 110.601C239.116 112.465 241.086 115.444 240.726 117.951C240.502 119.515 239.37 120.777 238.225 121.874C236.107 123.91 233.794 125.733 231.323 127.32C229.317 128.606 227.199 129.738 225.423 131.319C223.647 132.9 222.214 135.042 222.096 137.419" fill="#52D2BC"/>
<path d="M228.06 120.659C228.585 118.087 229.783 115.704 230.969 113.362C232.821 109.698 234.709 105.982 237.505 102.979C239.629 100.696 242.219 98.8906 244.378 96.643C245.918 95.0383 247.228 93.2213 248.26 91.251C248.821 90.1832 249.304 89.0623 250.054 88.1243C250.95 87.0093 252.172 86.2129 253.239 85.2572C254.679 83.9712 255.835 82.3725 256.614 80.6027" stroke="#00AD9F" stroke-miterlimit="10" stroke-linecap="round" stroke-linejoin="round"/>
<path d="M270.13 129.508C269.404 132.305 268.325 135.071 266.472 137.289C265.192 138.817 263.599 140.027 261.859 141.012C260.962 141.525 260.018 141.974 259.068 142.375C255.375 143.926 251.405 144.805 247.405 144.959C241.576 145.177 235.582 143.891 229.989 145.554C227.423 146.315 225.057 147.702 223.116 149.536C221.901 150.675 220.857 151.991 220.031 153.436L220.792 148.599C222.202 143.395 223.641 138.098 226.52 133.537C228.379 130.582 230.792 128.01 233.358 125.644C237.458 121.857 242.007 118.524 247.027 116.087C251.086 114.117 255.593 112.731 260.077 113.279C264.555 113.822 268.956 116.654 270.354 120.942C271.251 123.697 270.862 126.706 270.13 129.508Z" fill="#5193F4"/>
<path d="M224.603 144.917C228.886 138.581 235.299 133.709 242.555 131.29C247.074 129.78 251.859 129.207 256.437 127.886C261.015 126.564 265.587 124.323 268.272 120.382" stroke="#0B43A4" stroke-miterlimit="10" stroke-linecap="round" stroke-linejoin="round"/>
<path d="M227.423 191.386C227.677 184.879 231.039 178.874 235.128 173.801C238.532 169.571 242.644 165.701 247.723 163.772C249.316 163.17 251.062 162.763 252.714 163.17C254.366 163.577 255.865 164.987 255.894 166.692C255.918 168.125 254.956 169.382 253.941 170.397C250.602 173.742 246.29 175.883 242.243 178.325C235.293 182.526 228.685 188.13 225.93 195.77" fill="#52D2BC"/>
<path d="M229.995 185.694C234.243 176.219 245.24 167.748 252.49 166.692" stroke="#00AD9F" stroke-miterlimit="10" stroke-linecap="round" stroke-linejoin="round"/>
<path d="M224.768 196.56C224.709 195.469 228.267 192.619 229.069 191.894C233.511 187.865 238.785 184.903 244.361 183.157C246.614 182.449 249.015 181.936 251.269 182.478C253.529 183.021 255.599 184.874 255.818 187.304C256.03 189.664 254.449 191.976 252.425 193.115C250.402 194.259 248.042 194.431 245.788 194.301C242.308 194.1 238.886 193.233 235.393 193.257C231.895 193.286 226.986 193.64 224.768 196.56Z" fill="#00AD9F"/>
<path d="M228.39 193.251C235.535 189.381 246.337 186.862 254.183 187.811" stroke="#00AD9F" stroke-miterlimit="10" stroke-linecap="round" stroke-linejoin="round"/>
<path opacity="0.2" d="M139.153 82.3784C138.97 83.5052 138.634 84.5907 138.15 85.6349C135.643 80.3196 133.437 73.3819 132.906 64.8633C132.764 62.5566 133.407 60.1851 134.634 58.197C134.758 58.3327 134.864 58.4802 134.971 58.6218C136.734 61.0346 137.643 63.9725 138.31 66.8986C139.466 71.9661 139.985 77.2401 139.153 82.3784Z" fill="#5275A0"/>
<path d="M163.867 82.0776C169.2 80.1839 174.746 78.6737 179.595 75.7476C181.064 74.8627 182.474 73.8362 183.518 72.4794C184.557 71.1225 185.2 69.3881 184.97 67.6891C184.734 65.9665 183.63 64.3147 184.002 62.6098C184.25 61.4889 185.088 60.6158 185.731 59.6601C187.259 57.4007 187.713 54.4451 186.94 51.8258C186.102 49.0177 183.996 46.7642 182.798 44.0917C181.819 41.9031 181.471 39.4431 181.801 37.0715C177.324 37.1305 173.241 39.5788 168.84 40.3929C165.471 41.0182 161.973 40.676 158.634 41.4429C152.551 42.8411 147.572 48.1977 146.628 54.3684C143.808 53.8847 140.77 54.8993 138.805 56.9877C136.723 59.2059 135.549 62.362 135.738 65.4002C137.112 87.4814 149.755 98.9969 149.755 98.9969C149.755 98.9969 161.831 82.8032 163.867 82.0776Z" fill="#7EE8D4"/>
<path d="M151.932 81.9242C151.377 76.4791 153.283 71.093 155.466 66.0726C157.595 61.1821 160.05 56.3859 163.342 52.1856C166.633 47.9853 170.816 44.3867 175.754 42.3573" stroke="#00AD9F" stroke-miterlimit="10" stroke-linecap="round" stroke-linejoin="round"/>
<path d="M156.681 45.7021C156.12 50.5573 156.516 56.4095 157.778 61.1289" stroke="#00AD9F" stroke-miterlimit="10" stroke-linecap="round" stroke-linejoin="round"/>
<path d="M158.687 59.3887C164.232 55.8314 172.763 53.6723 179.341 54.0498" stroke="#00AD9F" stroke-miterlimit="10" stroke-linecap="round" stroke-linejoin="round"/>
<path d="M145.124 60.2972C151.802 63.1112 152.073 72.9277 152.256 75.7181" stroke="#00AD9F" stroke-miterlimit="10" stroke-linecap="round" stroke-linejoin="round"/>
<path d="M154.073 69.4766C159.182 65.8131 166.563 64.7099 171.996 66.0786" stroke="#00AD9F" stroke-miterlimit="10" stroke-linecap="round" stroke-linejoin="round"/>
<path d="M168.014 43.1774C166.48 45.0711 166.097 47.3246 166.25 48.8879" stroke="#00AD9F" stroke-miterlimit="10" stroke-linecap="round" stroke-linejoin="round"/>
<path d="M167.701 47.5016C170.055 46.2981 173.206 46.0208 176.574 46.8644" stroke="#00AD9F" stroke-miterlimit="10" stroke-linecap="round" stroke-linejoin="round"/>
<path d="M36.3414 58.1852C36.9667 58.1498 41.2498 54.9819 42.8958 53.9141C43.3619 53.6133 43.8279 53.3006 44.1524 52.8522C44.4769 52.4039 44.6303 51.7904 44.3943 51.2889C44.0993 50.6695 43.6155 50.05 42.3943 50.05C40.2646 50.0559 39.5212 50.758 38.4829 51.8258C35.0553 55.3713 36.3414 58.1852 36.3414 58.1852Z" fill="#4A49CA"/>
<path d="M55.5328 70.9691C57.3971 71.8068 59.3852 72.6386 61.4147 72.379C62.1993 72.2787 63.0607 71.9188 63.3202 71.1755C63.5444 70.5384 63.2377 69.801 62.7303 69.3526C62.2229 68.9043 61.5563 68.686 60.8955 68.5267C58.4177 67.9191 54.931 68.2554 52.4768 68.9515C52.4709 68.9515 54.4178 70.4676 55.5328 70.9691Z" fill="#4A49CA"/>
<path d="M67.8039 43.4428C66.9721 42.9178 66.0517 42.2158 66.0576 41.2306C66.0576 40.2454 67.0842 39.4962 68.0694 39.4903C69.0546 39.4844 69.9691 40.0212 70.7124 40.676C73.8451 43.431 73.4557 46.5695 73.4557 46.5695C73.4557 46.5695 68.7302 44.0269 67.8039 43.4428Z" fill="#4A49CA"/>
<path d="M70.2758 35.048C69.5442 34.7354 68.795 34.3578 68.3643 33.6853C68.1578 33.3608 68.0398 32.9479 68.1637 32.5821C68.3761 31.9745 68.7596 31.4258 70.2994 31.7031C75.1665 32.588 76.2284 35.9211 76.2284 35.9211C76.2284 35.9211 71.5678 35.6026 70.2758 35.048Z" fill="#4A49CA"/>
<path d="M84.535 42.4222C86.4878 42.2511 88.5055 41.2836 89.7326 39.7556C90.1986 39.1775 90.6234 38.5463 90.7768 37.8207C90.9302 37.095 90.765 36.2691 90.2045 35.7854C89.5202 35.1955 88.4347 35.2898 87.6854 35.7854C86.9303 36.2809 86.4465 37.095 86.0571 37.9033C85.538 38.9887 84.535 42.4222 84.535 42.4222Z" fill="#4A49CA"/>
<path d="M49.6745 113.604C44.9489 109.439 40.2174 105.268 35.4919 101.103C32.9728 98.8848 30.4005 96.5959 28.8077 93.6403C25.38 87.2867 27.3564 79.0336 31.9875 73.4941C36.6187 67.9546 43.4032 64.6864 50.2231 62.3089C57.0371 59.9315 64.1344 58.262 70.6298 55.1117C74.7064 53.1355 78.8007 50.1976 79.9216 45.8085C80.5942 43.1715 80.0278 40.2395 78.4231 38.0449C76.8184 35.8445 74.199 34.4169 71.4793 34.2576" stroke="#0B43A4" stroke-miterlimit="10" stroke-linecap="round" stroke-linejoin="round"/>
<path d="M87.8389 37.8915C86.5469 41.8558 81.5145 44.2687 79.2196 47.708" stroke="#0B43A4" stroke-miterlimit="10" stroke-linecap="round" stroke-linejoin="round"/>
<path d="M69.7743 42.4517C70.7654 43.4958 71.9512 44.363 72.8185 45.5134C74.6473 47.9498 74.7948 51.9083 72.0928 54.3624" stroke="#0B43A4" stroke-miterlimit="10" stroke-linecap="round" stroke-linejoin="round"/>
<path d="M44.3176 64.6569C48.4886 67.872 53.9693 70.0135 59.2318 70.2141" stroke="#0B43A4" stroke-miterlimit="10" stroke-linecap="round" stroke-linejoin="round"/>
<path d="M34.7721 70.5089C32.8488 64.8456 34.9432 58.0613 39.7219 54.4686" stroke="#0B43A4" stroke-miterlimit="10" stroke-linecap="round" stroke-linejoin="round"/>
<path d="M187.223 46.5812C186.999 45.8791 187.011 45.0178 187.524 44.4928C187.937 44.0798 188.621 43.8911 189.158 44.127C193.306 45.9499 192.857 52.4215 192.857 52.4215C192.857 52.4215 188.928 51.8552 187.223 46.5812Z" fill="#4A49CA"/>
<path d="M187.123 58.7043C184.439 63.5536 193.972 63.1819 197.412 60.3266C197.412 60.3266 189.436 54.5276 187.123 58.7043Z" fill="#4A49CA"/>
<path d="M199.182 46.9528C198.533 46.0679 198.303 44.7465 199.011 43.9029C199.536 43.2775 200.45 43.0829 201.252 43.2362C202.055 43.3896 203.258 44.1329 203.772 44.7701C206.91 48.6754 205.435 52.4923 205.435 52.4923C205.435 52.4923 200.238 48.4041 199.182 46.9528Z" fill="#4A49CA"/>
<path d="M237.045 58.958C236.815 58.2029 236.868 57.2826 237.452 56.7517C237.824 56.4154 238.349 56.2974 238.845 56.3328C239.34 56.3682 239.818 56.5511 240.272 56.7576C241.246 57.2 242.001 57.9787 242.467 58.9403C243.647 61.3709 242.844 64.3736 242.844 64.3736C242.844 64.3736 237.623 60.8399 237.045 58.958Z" fill="#4A49CA"/>
<path d="M225.134 67.8541C223.447 66.3734 220.869 65.9369 218.81 66.8395C218.285 67.0695 217.789 67.394 217.459 67.8541C216.703 68.8983 216.969 70.4204 217.754 71.4409C218.532 72.4615 219.718 73.081 220.892 73.6119C223.016 74.5735 226.308 74.7682 228.568 75.3463C228.562 75.3404 228.556 70.8569 225.134 67.8541Z" fill="#4A49CA"/>
<path d="M190.197 47.6254C191.601 52.2151 195.571 55.6839 199.99 57.554C204.409 59.4299 209.276 59.9255 214.072 60.2323C218.863 60.5449 223.712 60.6983 228.343 61.9549C232.857 63.1819 237.358 65.7304 239.293 69.9898C241.653 75.1753 239.564 81.3696 236.249 86.0065C232.939 90.6374 228.479 94.3717 225.276 99.0794C223.807 101.239 222.574 103.775 222.874 106.371C223.27 109.834 226.19 112.382 228.898 114.577" stroke="#0B43A4" stroke-miterlimit="10" stroke-linecap="round" stroke-linejoin="round"/>
<path d="M201.241 45.9381C204.415 49.4482 206.951 54.9405 207.571 59.6364" stroke="#0B43A4" stroke-miterlimit="10" stroke-linecap="round" stroke-linejoin="round"/>
<path d="M190.562 59.5066C192.379 59.9903 194.22 60.4741 196.096 60.48C197.972 60.4859 200.149 59.4417 201.5 58.1379" stroke="#0B43A4" stroke-miterlimit="10" stroke-linecap="round" stroke-linejoin="round"/>
<path d="M240.154 59.2411C241.853 60.8811 242.892 63.1995 242.98 65.5593C243.069 67.9249 241.759 70.7861 240.184 72.55" stroke="#0B43A4" stroke-miterlimit="10" stroke-linecap="round" stroke-linejoin="round"/>
<path d="M222.355 69.9662C225.753 73.0928 228.709 75.6237 232.485 78.2784C234.207 79.4936 237.629 81.0451 239.151 80.644" stroke="#0B43A4" stroke-miterlimit="10" stroke-linecap="round" stroke-linejoin="round"/>
<path opacity="0.2" d="M261.861 141.012C260.964 141.525 260.02 141.974 259.07 142.375C255.377 143.926 251.407 144.805 247.407 144.959C241.578 145.177 235.584 143.891 229.991 145.555C227.425 146.316 225.059 147.702 223.118 149.537C222.924 149.631 222.729 149.737 222.534 149.849C222.068 145.903 231.909 140.758 234.9 139.419C240.298 137 246.315 135.927 252.215 136.399C254.799 136.605 257.448 137.113 259.578 138.581C260.492 139.213 261.294 140.056 261.861 141.012Z" fill="#5275A0"/>
<path d="M252.207 138.758C254.791 138.965 257.44 139.472 259.57 140.941C261.699 142.41 263.204 145.035 262.708 147.578C262.13 150.539 259.068 152.468 256.071 152.828C253.074 153.194 250.083 152.368 247.127 151.761C240.585 150.416 233.836 150.103 227.199 150.852C225.541 151.035 223.972 151.365 222.526 152.215C222.06 148.268 231.907 143.124 234.898 141.785C240.296 139.36 246.313 138.286 252.207 138.758Z" fill="#52D2BC"/>
<path d="M225.087 149.725C229.972 145.431 242.52 142.516 251.393 143.454C254.065 143.738 256.762 144.534 258.815 146.268" stroke="#00AD9F" stroke-miterlimit="10" stroke-linecap="round" stroke-linejoin="round"/>
<path d="M215.96 101.469L263.682 101.368C269.28 101.357 273.829 105.887 273.841 111.486C273.853 117.084 269.322 121.633 263.723 121.644L231.081 121.709" stroke="#0B43A4" stroke-miterlimit="10" stroke-linecap="round" stroke-linejoin="round" stroke-dasharray="4 4"/>
<path d="M71.5737 136.505L38.1998 136.576C35.0376 136.582 32.4831 139.148 32.489 142.31C32.4949 145.472 35.0612 148.026 38.2234 148.02L47.9518 148.003" stroke="#0B43A4" stroke-miterlimit="10" stroke-linecap="round" stroke-linejoin="round" stroke-dasharray="4 4"/>
<path d="M18.3064 162.344C6.87297 162.368 6.63699 179.423 21.1795 179.387C35.7278 179.358 226.562 178.962 235.558 178.945C244.555 178.927 245.505 164.887 234.384 164.91C212.243 164.957 211.512 154.398 223.801 154.374" stroke="#C8DBFB" stroke-miterlimit="10" stroke-linecap="round" stroke-linejoin="round" stroke-dasharray="4 4"/>
<path d="M20.9789 161.872C21.2385 163.412 20.2061 164.869 18.6663 165.134C17.1265 165.394 15.6693 164.362 15.4038 162.822C15.1443 161.282 16.1767 159.825 17.7165 159.559C19.2563 159.3 20.7194 160.332 20.9789 161.872Z" fill="#5193F4"/>
<path d="M229.287 154.451C229.547 155.99 228.514 157.448 226.975 157.713C225.435 157.973 223.978 156.94 223.712 155.401C223.452 153.861 224.485 152.404 226.025 152.138C227.564 151.879 229.022 152.917 229.287 154.451Z" fill="#0B43A4"/>
<path opacity="0.2" d="M232.361 203.757L54.8484 204.123C52.4827 204.129 50.5535 202.212 50.5535 199.846L50.3117 82.2545C50.3058 79.8888 52.2231 77.9598 54.5889 77.9598L232.101 77.594C234.467 77.5881 236.396 79.5054 236.396 81.871L236.638 199.463C236.644 201.828 234.733 203.751 232.361 203.757Z" fill="#5275A0"/>
<path d="M228.886 201.511L51.3736 201.877C49.0079 201.883 47.0787 199.965 47.0787 197.6L46.8368 80.008C46.8309 77.6424 48.7483 75.7133 51.114 75.7133L228.626 75.3475C230.992 75.3416 232.921 77.2589 232.921 79.6246L233.163 197.216C233.169 199.582 231.252 201.505 228.886 201.511Z" fill="white"/>
<path d="M228.338 75.3406L51.5863 75.7063C49.0082 75.7122 46.9257 77.8065 46.9257 80.3845L46.9316 84.4433L233.022 84.0598L233.016 80.0011C233.01 77.4231 230.916 75.3347 228.338 75.3406Z" fill="#0056EC"/>
<path d="M51.7983 201.876L78.5057 201.822L78.2639 84.3784L46.8899 84.4433L47.12 197.227C47.1259 199.799 49.2202 201.881 51.7983 201.876Z" fill="#C8DBFB"/>
<path d="M228.679 76.5204C230.39 76.5204 231.783 77.9127 231.788 79.6235L232.03 197.215C232.03 198.047 231.712 198.826 231.122 199.415C230.538 200.005 229.759 200.33 228.927 200.33L51.4087 200.696C49.6978 200.696 48.3055 199.303 48.2996 197.593L48.0577 80.0011C48.0577 79.1692 48.3763 78.3905 48.9663 77.8006C49.5503 77.2107 50.3291 76.8862 51.1609 76.8862L228.668 76.5204H228.679ZM228.679 75.3406C228.679 75.3406 228.673 75.3406 228.668 75.3406L51.155 75.7063C48.7893 75.7122 46.8719 77.6354 46.8778 80.0011L47.1197 197.593C47.1256 199.958 49.043 201.87 51.4087 201.87C51.4087 201.87 51.4146 201.87 51.4205 201.87L228.933 201.504C231.299 201.498 233.216 199.575 233.21 197.209L232.968 79.6176C232.962 77.252 231.045 75.3406 228.679 75.3406Z" fill="#0056EC"/>
<path d="M73.9985 192.897L53.4149 192.938C52.5064 192.938 51.7689 192.206 51.7689 191.298V191.092C51.7689 190.183 52.5005 189.446 53.409 189.446L73.9926 189.404C74.9012 189.404 75.6386 190.136 75.6386 191.044V191.251C75.6445 192.159 74.9071 192.897 73.9985 192.897Z" fill="white"/>
<path d="M71.5266 113.22L54.0049 113.256C52.3412 113.262 50.9902 111.911 50.9843 110.247L50.9489 92.7259C50.943 91.0623 52.294 89.7114 53.9577 89.7055L71.4794 89.6701C73.1431 89.6642 74.4941 91.0151 74.5 92.6787L74.5354 110.2C74.5354 111.869 73.1903 113.22 71.5266 113.22Z" fill="white"/>
<path d="M146.54 165.707L85.4909 165.831C84.3051 165.831 83.3434 164.875 83.3375 163.689V163.424C83.3375 162.238 84.2933 161.276 85.4791 161.27L146.528 161.146C147.714 161.146 148.675 162.102 148.681 163.288V163.553C148.681 164.745 147.726 165.707 146.54 165.707Z" fill="#C8DBFB"/>
<path d="M143.012 96.1535L94.7709 96.2537C93.5851 96.2537 92.6235 95.298 92.6176 94.1123V93.8468C92.6176 92.661 93.5733 91.6994 94.7591 91.6935L143 91.5933C144.186 91.5933 145.147 92.549 145.153 93.7347V94.0002C145.153 95.1919 144.198 96.1535 143.012 96.1535Z" fill="#C8DBFB"/>
<path d="M219.276 144.947L154.953 145.083C153.767 145.083 152.805 144.127 152.799 142.941V142.676C152.799 141.49 153.755 140.528 154.941 140.522L219.264 140.393C220.45 140.393 221.411 141.348 221.417 142.534V142.8C221.417 143.979 220.461 144.941 219.276 144.947Z" fill="#C8DBFB"/>
<path d="M146.557 175.14L85.5086 175.264C84.3228 175.264 83.3611 174.308 83.3552 173.122V172.857C83.3552 171.671 84.311 170.709 85.4968 170.703L146.546 170.58C147.731 170.58 148.693 171.535 148.699 172.721V172.987C148.705 174.172 147.743 175.134 146.557 175.14Z" fill="#C8DBFB"/>
<path d="M146.575 184.567L85.5263 184.691C84.3405 184.691 83.3788 183.735 83.3729 182.549V182.284C83.3729 181.098 84.3287 180.136 85.5145 180.131L146.563 180.007C147.749 180.007 148.711 180.962 148.717 182.148V182.414C148.723 183.599 147.761 184.567 146.575 184.567Z" fill="#C8DBFB"/>
<path d="M217.966 190.714L156.439 190.844C154.48 190.85 152.888 189.263 152.888 187.304L152.834 160.881C152.829 158.922 154.416 157.33 156.374 157.33L217.901 157.2C219.86 157.194 221.453 158.781 221.453 160.739L221.506 187.163C221.512 189.121 219.925 190.714 217.966 190.714Z" fill="#C8DBFB"/>
<path d="M57.1315 79.9774C57.1315 80.8092 56.459 81.4818 55.6331 81.4818C54.8071 81.4818 54.1287 80.8092 54.1287 79.9833C54.1287 79.1515 54.8012 78.479 55.6272 78.479C56.4531 78.479 57.1315 79.1515 57.1315 79.9774Z" fill="#C8DBFB"/>
<path d="M61.9988 81.476C62.8296 81.476 63.5032 80.8024 63.5032 79.9716C63.5032 79.1408 62.8296 78.4673 61.9988 78.4673C61.1679 78.4673 60.4944 79.1408 60.4944 79.9716C60.4944 80.8024 61.1679 81.476 61.9988 81.476Z" fill="#C8DBFB"/>
<path d="M69.8687 79.9539C69.8687 80.7857 69.1962 81.4583 68.3702 81.4583C67.5443 81.4583 66.8658 80.7857 66.8658 79.9598C66.8658 79.128 67.5384 78.4555 68.3643 78.4555C69.1903 78.4496 69.8628 79.1221 69.8687 79.9539Z" fill="#C8DBFB"/>
<path d="M90.2564 94.4336C90.4958 92.0444 88.753 89.9134 86.3636 89.674C83.9743 89.4346 81.8433 91.1774 81.6039 93.5666C81.3645 95.9559 83.1073 98.0868 85.4967 98.3262C87.886 98.5656 90.017 96.8228 90.2564 94.4336Z" fill="#C8DBFB"/>
<path d="M72.7478 116.895L53.4857 116.937C53.0373 116.937 52.6774 116.577 52.6715 116.129V116.028C52.6715 115.58 53.0314 115.22 53.4798 115.214L72.7419 115.173C73.1903 115.173 73.5501 115.533 73.556 115.981V116.081C73.556 116.53 73.1962 116.895 72.7478 116.895Z" fill="white"/>
<path d="M72.7537 120.577L53.4915 120.618C53.0431 120.618 52.6833 120.258 52.6774 119.81V119.71C52.6774 119.261 53.0372 118.901 53.4856 118.895L72.7478 118.854C73.1961 118.854 73.556 119.214 73.5619 119.662V119.763C73.5619 120.211 73.202 120.571 72.7537 120.577Z" fill="white"/>
<path d="M94.8063 128.352L89.361 128.405L89.4023 151.224L84.7003 151.236C83.0425 151.242 81.6974 149.896 81.6915 148.239L81.603 106.041C81.5971 104.365 82.954 103.003 84.6295 103.003L94.7473 102.979L94.8063 128.352Z" fill="#C8DBFB"/>
<path d="M130.139 102.908V103.498C131.767 103.498 133.095 104.82 133.095 106.448L133.177 147.59C133.177 148.38 132.87 149.124 132.316 149.684C131.761 150.245 131.018 150.551 130.227 150.557L85.2313 150.652C83.603 150.652 82.2756 149.33 82.2756 147.702L82.193 106.56C82.193 105.769 82.4998 105.026 83.0543 104.466C83.6089 103.905 84.3522 103.598 85.1428 103.593L130.133 103.498L130.139 102.908ZM130.139 102.908H130.133L85.1428 103.003C83.1841 103.009 81.5971 104.595 81.603 106.554L81.6856 147.696C81.6915 149.655 83.2785 151.236 85.2313 151.236H85.2372L130.227 151.141C132.186 151.135 133.773 149.548 133.767 147.59L133.685 106.448C133.685 104.489 132.098 102.902 130.139 102.908Z" fill="#C8DBFB"/>
<path d="M205.264 136.764L145.254 123.202C143.342 122.771 142.145 120.872 142.575 118.96L149.324 89.0919C149.755 87.1805 151.655 85.9829 153.566 86.4136L213.577 99.9762C215.488 100.407 216.686 102.306 216.255 104.218L209.506 134.086C209.075 135.998 207.176 137.201 205.264 136.764Z" fill="#C8DBFB"/>
<path d="M89.1251 217.998L80.73 218.016L78.671 207.321L91.1368 207.297L89.1251 217.998Z" fill="#0056EC"/>
<path d="M80.9954 207.315C80.9954 208.188 80.8303 209.651 81.4143 209.674C81.9984 209.698 81.7565 208.282 82.4172 208.323C82.842 208.347 82.2226 212.972 83.8213 213.084C84.9187 213.161 84.7181 210.819 84.8302 209.35C84.9069 208.359 86.1753 208.553 86.1871 209.208C86.1989 209.946 86.1517 210.435 86.1871 211.273C86.2461 212.671 88.3935 212.3 88.3168 210.435C88.2401 208.571 88.3109 207.309 88.3109 207.309L80.9954 207.315Z" fill="#C8DBFB"/>
<path d="M78.9896 213.775C78.8185 213.775 78.6533 213.757 78.494 213.722C77.8745 213.586 77.4439 213.261 77.202 212.754C76.3465 210.937 78.6002 207.539 78.6887 207.386L78.8067 207.999C78.789 208.035 76.8244 210.955 77.5973 212.589C77.7801 212.978 78.1046 213.22 78.5943 213.326C78.73 213.356 78.8716 213.368 79.0132 213.368C82.0396 213.362 87.2077 207.728 87.2667 207.663C87.4791 207.409 87.8743 207.651 87.7327 207.864C87.4909 208.135 82.2402 213.769 78.9896 213.775Z" fill="#0C2340"/>
<path opacity="0.2" d="M167.224 67.4884C155.289 67.0342 138.858 75.8596 144.687 97.4394C144.563 99.2623 145.655 100.566 146.817 100.212C147.979 99.8581 146.953 96.3952 146.953 96.3952C148.941 80.349 152.658 77.5763 158.964 77.6353L173.766 77.6058C177.424 78.1426 184.073 80.703 185.07 93.5458L188.757 94.2242C189.046 84.9446 186.804 68.2376 167.224 67.4884Z" fill="#5275A0"/>
<path d="M167.224 65.6066C155.289 65.1523 138.858 73.9778 144.687 95.5576L146.953 94.5134C148.941 78.4672 152.658 75.6945 158.964 75.7535L173.766 75.724C177.424 76.2608 184.25 79.5113 185.247 92.3542L188.751 92.3483C189.046 83.0627 186.804 66.3558 167.224 65.6066Z" fill="#EF832B"/>
<path d="M164.781 65.9606L163.011 69.8541C163.011 69.8541 163.224 72.0487 165.377 72.0015C167.53 71.9543 167.82 70.9632 167.82 70.9632L168.103 66.4915L164.781 65.9606Z" fill="#FFB9A3"/>
<path d="M173.896 62.7101C171.878 66.2792 170.982 67.3942 168.339 67.931C164.917 68.6271 161.082 66.3205 162.864 60.6335C164.315 55.9966 166.522 56.7105 168.675 56.8874C170.828 57.0585 176.079 58.8519 173.896 62.7101Z" fill="#FFB9A3"/>
<path d="M165.861 59.8901C165.324 59.6129 164.634 59.8488 164.215 60.2854C163.784 60.7396 163.578 61.4122 163.761 62.008C162.935 62.0198 162.209 62.828 162.286 63.6539C161.719 62.3384 162.026 60.9638 161.914 59.6129C161.802 58.2619 161.949 56.7989 162.823 55.7665C163.182 55.3417 163.643 55.0173 164.132 54.7577C165.991 53.7666 168.333 53.7371 170.221 54.6692C170.61 54.8639 171.589 55.4774 172.958 55.1471C175.566 54.5158 177.088 56.2797 175.524 57.9315C176.026 58.1144 176.58 58.3386 176.805 58.8223C176.864 58.9462 176.893 59.0996 176.816 59.2117C176.763 59.2884 176.669 59.3297 176.575 59.3592C176.138 59.5067 175.66 59.5421 175.2 59.4654C175.377 59.6129 176.344 59.6718 176.634 60.2382C177.412 61.7366 174.333 60.9815 173.861 60.8281C174.398 60.9284 175.802 62.0493 175.353 62.8221C175.265 62.9755 173.365 64.0787 171.371 61.7602C170.905 61.2234 170.327 60.7219 169.643 60.5391C169.106 60.3975 168.539 60.5921 168.014 60.7927C167.631 60.9343 166.657 61.5301 166.38 61.1762C166.091 60.7986 166.486 60.2028 165.861 59.8901Z" fill="#0C2340"/>
<path d="M185.63 92.3483C185.099 94.1712 184.568 94.3482 185.206 94.6373C185.849 94.9264 186.368 93.9058 186.368 93.9058L189.329 94.4957C189.329 94.4957 188.663 92.5725 188.197 92.3424C187.731 92.1124 185.63 92.3483 185.63 92.3483Z" fill="#FFB9A3"/>
<path d="M146.953 94.5133C147.342 95.4749 147.448 95.4808 147.985 96.6371C149.018 98.8434 146.605 102.33 145.106 98.5249C144.693 97.4807 144.687 95.5634 144.687 95.5634L146.953 94.5133Z" fill="#FFB9A3"/>
<path d="M170.079 54.9819C172.103 55.094 174.592 53.6663 176.179 55.4951C176.327 55.6662 176.622 55.442 176.492 55.2532C174.976 53.0764 172.162 54.6987 170.085 54.6397C169.861 54.6397 169.867 54.9701 170.079 54.9819Z" fill="#0C2340"/>
<path d="M170.893 53.8669C169.513 54.1088 168.179 53.454 166.793 53.6722C165.666 53.8492 164.663 54.4274 163.814 55.1648C163.595 55.3536 163.879 55.7252 164.126 55.5659C165.318 54.7813 166.463 54.1029 167.949 54.215C169.029 54.2917 169.943 54.6161 171.017 54.2917C171.288 54.2091 171.17 53.8197 170.893 53.8669Z" fill="#0C2340"/>
<path d="M163.023 55.7547C162.05 56.3623 161.489 57.1705 161.371 58.3327C161.289 59.1704 161.265 61.0877 162.109 61.5596C162.309 61.6717 162.522 61.4063 162.357 61.2352C161.814 60.6865 161.767 59.2058 161.808 58.5097C161.867 57.4419 162.315 56.6278 163.165 55.9907C163.3 55.8904 163.177 55.6603 163.023 55.7547Z" fill="#0C2340"/>
<path d="M177.99 59.076C177.489 58.2088 176.209 57.4419 175.223 57.9905C175.07 58.079 175.141 58.315 175.312 58.315C175.743 58.3209 176.138 58.2678 176.557 58.3976C177.035 58.5451 177.436 58.8223 177.719 59.2294C177.837 59.3946 178.091 59.253 177.99 59.076Z" fill="#0C2340"/>
<path d="M112.34 149.071C118.599 151.371 124.033 158.545 122.782 163.766C121.372 169.659 117.307 172.202 117.307 172.202L116.027 169.836C116.027 169.836 119.278 164.757 118.995 162.356C118.54 158.515 113.691 155.943 113.691 155.943L112.34 149.071Z" fill="#0B43A4"/>
<path d="M96.936 215.568C96.936 215.568 93.0954 217.119 92.1338 217.998L99.7442 217.981L99.7383 215.562L96.936 215.568Z" fill="#0C2340"/>
<path d="M113.756 215.42C113.756 215.42 114.847 216.683 115.048 217.951L109.856 217.963C109.945 217.09 110.316 216.246 110.824 215.426L113.756 215.42Z" fill="#0C2340"/>
<path d="M114.074 215.532L110.529 215.538C110.599 211.362 109.738 197.126 108.906 186.484C108.417 180.243 107.933 175.228 107.65 174.213L109.549 173.795L116.717 172.202C117.944 177.806 115.113 203.539 114.074 215.532Z" fill="#047F76"/>
<path d="M101.042 173.989C98.2753 178.343 97.5615 209.822 96.4052 215.656L99.7679 215.845C99.7679 215.845 103.632 196 111.856 173.688L101.042 173.989Z" fill="#009790"/>
<path opacity="0.2" d="M113.272 173.688C111.65 178.095 110.192 182.408 108.906 186.484C108.417 180.243 107.933 175.228 107.65 174.214L109.549 173.795L113.272 173.688Z" fill="#5275A0"/>
<path d="M101.042 173.989C98.2753 178.343 97.5615 209.822 96.4052 215.656L99.7679 215.845C99.7679 215.845 103.632 196 111.856 173.688L101.042 173.989Z" fill="#009790"/>
<path d="M103.154 138.847C103.154 138.847 101.001 147.047 106.381 147.041L106.063 149.135L110.145 149.584L109.26 146.664C109.26 146.664 110.069 141.508 110.122 140.575C110.222 138.835 105.349 135.773 103.154 138.847Z" fill="#FFB9A3"/>
<path d="M89.856 129.654L88.269 129.658L88.2823 136.353L89.8693 136.35L89.856 129.654Z" fill="#0C2340"/>
<path d="M93.6087 129.644L84.5115 129.662C83.8744 129.662 83.3552 129.148 83.3552 128.511V128.275C83.3552 127.638 83.8685 127.119 84.5057 127.119L93.6028 127.101C94.24 127.101 94.7591 127.615 94.7591 128.252V128.488C94.765 129.125 94.2459 129.644 93.6087 129.644Z" fill="#0056EC"/>
<path d="M87.8448 138.098C87.8035 136.582 86.5469 136.977 87.2372 134.499C87.6619 132.965 90.83 134.747 90.4347 135.809C90.0395 136.871 89.5852 138.552 89.5852 138.552L87.8448 138.098Z" fill="#FFB9A3"/>
<path d="M106.417 148.657C98.3756 149.188 97.8447 151.902 94.2459 151.477C88.9186 150.852 89.8507 140.959 90.5115 137.413L87.3316 137.419C87.3316 137.419 81.5972 159.949 99.7089 155.784C99.0128 159.731 103.52 166.179 99.1485 174.001C106.021 175.871 112.44 176.325 117.933 173.966C116.971 172.668 119.903 159.577 114.163 150.156C113.042 148.309 107.007 148.616 106.417 148.657Z" fill="#0056EC"/>
<path d="M106.417 148.657C98.3756 149.188 97.8447 151.902 94.2459 151.477C88.9186 150.852 89.8507 140.959 90.5115 137.413L87.3316 137.419C87.3316 137.419 81.5972 159.949 99.7089 155.784C99.0128 159.731 103.52 166.179 99.1485 174.001C106.021 175.871 112.44 176.325 117.933 173.966C116.971 172.668 119.903 159.577 114.163 150.156C113.042 148.309 107.007 148.616 106.417 148.657Z" fill="#0056EC"/>
<path d="M105.308 140.422C105.833 140.558 106.44 140.658 106.724 141.101C106.906 141.39 106.895 141.749 106.877 142.086C106.971 141.732 107.367 141.478 107.738 141.525C108.116 141.567 108.434 141.903 108.44 142.269C108.446 142.44 108.387 142.605 108.322 142.764C108.163 143.165 107.962 143.543 107.726 143.903C108.381 144.145 108.936 146.068 109.26 146.664C110.364 146.386 112.824 145.437 113.036 141.525C113.136 139.702 112.582 137.52 110.605 136.31C109.207 135.455 106.895 135.443 105.296 135.85C103.998 136.18 101.933 137.478 102.895 138.989C103.378 139.75 104.44 140.198 105.308 140.422Z" fill="#EF832B"/>
<path d="M112.198 137.933C112.947 137.685 113.897 137.815 114.346 138.44C114.694 138.93 114.664 139.567 114.776 140.151C114.829 140.434 114.93 140.717 115.148 140.912C115.408 141.142 115.785 141.201 116.139 141.218C117.006 141.266 117.88 141.154 118.735 141.301C119.59 141.449 120.464 141.926 120.705 142.723C120.841 143.165 120.764 143.649 120.93 144.08C121.172 144.729 121.862 145.1 122.464 145.478C123.744 146.28 124.835 147.366 125.62 148.622C126.121 149.419 126.505 150.303 126.564 151.23C126.623 152.156 127.295 153.383 127.112 154.291C126.918 155.277 125.95 156.61 124.039 157.223C120.735 158.285 119.685 158.745 116.517 156.864C116.133 156.639 115.39 155.867 115.042 155.589C114.77 155.371 114.599 155.058 114.505 154.734C114.239 153.825 114.546 152.846 115.018 152.02C115.49 151.194 116.133 150.463 116.617 149.643C116.906 149.147 117.142 148.599 117.118 148.032C117.107 147.82 117.054 147.602 116.9 147.448C116.765 147.318 116.576 147.253 116.387 147.218C115.691 147.082 114.924 147.224 114.298 146.911C113.685 146.61 113.349 145.867 113.537 145.23C113.661 144.805 113.986 144.445 114.074 144.015C114.204 143.389 113.815 142.752 113.272 142.387C112.729 142.021 112.063 141.879 111.408 141.773C111.083 141.72 110.747 141.667 110.487 141.478C110.163 141.248 110.015 140.841 110.021 140.457C110.045 139.23 111.042 138.316 112.198 137.933Z" fill="#EF832B"/>
<path d="M111.602 141.23C115.579 142.092 110.558 145.861 112.664 147.666C113.266 148.18 113.962 148.02 114.664 148.115C117.366 148.486 115.885 150.321 115.703 151.761C115.673 151.979 116.033 152.02 116.08 151.814C116.31 150.823 117.219 149.607 116.753 148.551C116.34 147.619 115.313 147.731 114.47 147.702C113.414 147.672 112.251 147.702 112.647 145.608C112.735 145.142 113.107 144.67 113.29 144.227C113.496 143.72 113.638 143.218 113.526 142.664C113.331 141.726 112.552 141.177 111.655 141.03C111.526 141 111.467 141.201 111.602 141.23Z" fill="#EF832B"/>
<path d="M103.408 136.357C106.476 134.8 109.532 135.113 112.122 137.396C112.299 137.549 112.535 137.313 112.381 137.136C110.11 134.576 106.069 134.128 103.325 136.21C103.237 136.281 103.308 136.411 103.408 136.357Z" fill="#EF832B"/>
<path d="M206.45 145.979L205.123 148.658L208.367 149.985L208.715 146.905L206.45 145.979Z" fill="#FFB9A3"/>
<path d="M208.409 137.278C201.04 140.487 204.061 148.262 208.544 147.348C210.727 146.905 211.83 139.873 211.83 139.873L208.409 137.278Z" fill="#FFB9A3"/>
<path d="M210.857 136.174C210.615 135.726 210.385 135.242 209.984 134.924C209.583 134.605 208.951 134.499 208.58 134.847C208.084 135.307 208.373 136.169 208.875 136.623C208.444 136.676 207.931 136.375 207.612 136.676C207.37 136.9 207.453 137.301 207.595 137.602C207.919 138.304 208.45 138.918 209.105 139.331C208.733 139.543 208.297 139.956 208.521 140.322C208.586 140.422 208.686 140.493 208.751 140.593C208.892 140.829 208.757 141.136 208.609 141.372C208.379 141.755 208.125 142.127 207.86 142.487C208.114 142.139 208.733 142.28 208.916 142.67C209.099 143.059 208.94 143.537 208.651 143.855C208.491 144.032 208.291 144.18 208.055 144.233C207.854 144.28 206.957 147.041 207.654 147.584C208.515 148.25 211.441 147.672 211.866 146.917C212.291 147.377 212.91 147.725 213.524 147.602C214.137 147.478 214.603 146.723 214.273 146.192C214.934 146.433 215.742 146.221 216.196 145.678C216.65 145.136 216.715 144.304 216.355 143.696C216.715 143.59 216.792 143.1 216.698 142.735C216.509 141.997 215.907 141.372 215.17 141.165C215.541 141.171 215.836 140.794 215.854 140.422C215.872 140.05 215.677 139.696 215.441 139.407C214.751 138.552 213.931 138.328 212.91 138.198C211.884 138.074 211.317 137.024 210.857 136.174Z" fill="#4A49CA"/>
<path d="M203.954 215.06C203.954 215.06 199.642 217.131 199.064 217.774C199.064 217.774 207.547 218.158 208.214 217.756C208.881 217.355 206.857 215.055 206.857 215.055L203.954 215.06Z" fill="#0C2340"/>
<path d="M219.995 212.718C219.995 212.718 216.208 215.639 215.771 216.388C215.771 216.388 224.715 215.061 224.715 214.476C224.715 213.892 222.827 212.111 222.827 212.111L219.995 212.718Z" fill="#0C2340"/>
<path d="M208.119 175.081C207.96 175.96 202.055 199.262 218.951 213.238L223.842 212.117C223.842 212.117 218.149 206.778 215.464 197.162C212.928 188.071 214.939 187.18 216.461 182.178C218.149 176.638 216.892 172.615 216.892 172.615L208.119 175.081Z" fill="#D8742A"/>
<path d="M200.049 175.01C197.371 181.411 192.775 203.221 202.792 215.497L207.795 215.485C207.795 215.485 203.854 211.167 203.412 201.144C202.969 191.121 205.518 186.72 207.317 183.416C209.117 180.107 210.78 174.491 210.78 174.491L200.049 175.01Z" fill="#EF832B"/>
<path d="M196.521 135.337C195.194 140.021 194.757 148.681 201.412 152.168L205.866 151.082C205.866 151.082 197.831 146.87 199.553 136.228L196.521 135.337Z" fill="#0B43A4"/>
<path d="M184.244 132.942L187.701 132.517C187.701 132.517 187.282 147.041 204.061 148.268C216.869 149.2 217.872 173.234 217.872 173.234C213.742 176.013 206.816 176.856 197.937 176.219C197.937 176.219 198.503 159.076 197.093 154.38C197.093 154.374 183.153 149.991 184.244 132.942Z" fill="#0056EC"/>
<path d="M180.014 130.305C179.43 130.983 181.872 131.844 184.244 132.942L187.282 132.57C187.282 132.57 187.318 131.962 187.282 131.331C187.247 130.7 186.928 130.34 186.568 130.883C186.208 131.426 184.675 131.608 183.949 131.113C183.217 130.611 180.598 129.626 180.014 130.305Z" fill="#FFB9A3"/>
<path d="M196.521 135.337C195.406 134.245 195.707 134.31 195.707 134.31L199.099 135.077C199.099 135.077 199.843 133.419 200.48 133.378C201.111 133.331 200.002 134.517 200.255 134.959C200.509 135.402 199.559 136.234 199.559 136.234L196.521 135.337Z" fill="#FFB9A3"/>
<path d="M212.763 137.773C213.459 137.95 214.167 138.021 214.745 138.499C215.317 138.971 215.577 139.779 215.164 140.434C214.969 140.741 215.429 140.983 215.636 140.711C216.161 140.021 216.019 139.077 215.488 138.422C214.875 137.673 213.736 137.36 212.804 137.461C212.639 137.478 212.58 137.726 212.763 137.773Z" fill="#4A49CA"/>
<path d="M215.83 144.068C216.29 144.339 216.674 144.776 216.479 145.348C216.296 145.873 215.765 146.186 215.335 146.487C215.128 146.634 215.305 146.947 215.535 146.829C216.172 146.492 216.845 146.021 216.945 145.242C217.034 144.563 216.58 144.05 216.013 143.743C215.807 143.637 215.63 143.944 215.83 144.068Z" fill="#4A49CA"/>
<path d="M208.084 147.584C209.647 148.557 211.86 148.398 213.152 147.029C213.311 146.858 213.093 146.54 212.892 146.693C211.476 147.743 209.872 148.079 208.214 147.366C208.066 147.301 207.942 147.495 208.084 147.584Z" fill="#4A49CA"/>
<path d="M216.037 138.8C216.934 139.655 216.037 140.823 215.459 141.555C215.329 141.714 215.529 141.932 215.689 141.785C216.202 141.307 216.715 140.776 216.786 140.044C216.839 139.49 216.609 138.965 216.119 138.694C216.055 138.658 215.978 138.747 216.037 138.8Z" fill="#4A49CA"/>
<path d="M116.24 31.0305L114.859 27.6502L128.21 22.5768L116.24 31.0305Z" fill="#0B43A4"/>
<path d="M116.912 28.9422L128.21 22.5768L120.346 30.5645L116.912 28.9422Z" fill="#5193F4"/>
<path d="M111.803 26.2698L128.21 22.5768L114.859 27.6502L111.803 26.2698Z" fill="#5193F4"/>
<path d="M116.912 28.9421L116.24 31.0305L118.281 29.5911L116.912 28.9421Z" fill="#0056EC"/>
<path d="M114.67 30.5763C111.183 29.9863 106.452 33.5142 108.487 37.1835C109.178 38.4342 112.753 37.8915 112.487 36.511C112.357 35.8503 111.549 35.5671 110.883 35.6438C106.989 36.0922 106.83 39.3545 107.007 40.1863C107.897 44.481 114.481 43.0298 116.694 42.4222" stroke="#C8DBFB" stroke-miterlimit="10" stroke-linecap="round" stroke-linejoin="round" stroke-dasharray="4 4"/>
</g>
<defs>
<clipPath id="clip0">
<rect width="280" height="239" fill="white"/>
</clipPath>
</defs>
</svg>
