<svg width="85" height="86" viewBox="0 0 85 86" fill="none" xmlns="http://www.w3.org/2000/svg">
<g clip-path="url(#clip0)">
<path d="M82.6413 71.9016H2.35867C1.056 71.9016 0 70.8456 0 69.543V27.6385C0 26.3358 1.056 25.2798 2.35867 25.2798H82.6413C83.944 25.2798 85 26.3358 85 27.6385V69.543C85 70.8456 83.944 71.9016 82.6413 71.9016Z" fill="url(#paint0_linear)"/>
<path d="M80.896 70.2853H4.10402C2.87535 70.2853 1.87952 69.2893 1.87952 68.0608V29.1208C1.87952 27.8921 2.87552 26.8963 4.10402 26.8963H80.896C82.1245 26.8963 83.1205 27.8923 83.1205 29.1208V68.0606C83.1205 69.2893 82.1245 70.2853 80.896 70.2853Z" fill="url(#paint1_linear)"/>
<path d="M77.8709 39.538C73.9336 39.538 70.7419 36.3461 70.7419 32.409C70.7419 32.2473 70.7474 32.0868 70.7583 31.928C70.8099 31.1648 70.2074 30.5176 69.4426 30.5176H15.5574C14.7926 30.5176 14.1901 31.165 14.2418 31.928C14.2526 32.087 14.2579 32.2473 14.2579 32.409C14.2579 36.3463 11.0661 39.538 7.12893 39.538C7.12427 39.538 7.1196 39.538 7.11493 39.538C6.37543 39.5365 5.76843 40.1185 5.76843 40.858V56.3235C5.76843 57.063 6.37543 57.645 7.11493 57.6436H7.12893C11.0663 57.6436 14.2579 60.8355 14.2579 64.7726C14.2579 64.9343 14.2524 65.0948 14.2418 65.2536C14.1901 66.0168 14.7926 66.664 15.5574 66.664H69.4423C70.2071 66.664 70.8096 66.0168 70.7579 65.2536C70.7471 65.0946 70.7416 64.9343 70.7416 64.7726C70.7416 60.8353 73.9334 57.6436 77.8706 57.6436H77.8846C78.6241 57.6451 79.2311 57.0631 79.2311 56.3235V40.858C79.2311 40.1185 78.6241 39.5365 77.8846 39.538C77.8801 39.538 77.8756 39.538 77.8709 39.538Z" fill="url(#paint2_linear)"/>
<path d="M42.5001 64.831C51.4693 64.831 58.7402 57.56 58.7402 48.5908C58.7402 39.6216 51.4693 32.3506 42.5001 32.3506C33.5309 32.3506 26.2599 39.6216 26.2599 48.5908C26.2599 57.56 33.5309 64.831 42.5001 64.831Z" fill="url(#paint3_linear)"/>
<path d="M48.8768 38.7858C48.6296 38.3993 48.1515 38.0778 47.4398 37.8218C46.6726 37.5464 45.855 37.3593 44.9888 37.2566C44.9423 37.2271 44.8951 37.2013 44.8471 37.1793L43.5641 35.8044C43.3628 35.6566 43.1456 35.5821 42.913 35.5821C42.6588 35.5821 42.4415 35.6566 42.2616 35.8044C42.0815 35.9529 41.9916 36.1221 41.9916 36.3128V37.2339C40.2763 37.4244 38.8413 37.9963 37.6871 38.9493C36.5326 39.9023 35.9558 41.2991 35.9558 43.1386C35.9558 43.7938 36.0298 44.3909 36.1781 44.9299C36.326 45.4689 36.5698 45.9391 36.9088 46.3406C37.2473 46.7421 37.5703 47.0856 37.8776 47.3711C37.8798 47.3731 37.8823 47.3751 37.8845 47.3771C37.8845 47.3771 41.879 51.3719 41.8811 51.3738C41.9183 51.4134 41.9546 51.4506 41.9913 51.4888V56.8024C41.0526 56.7389 40.2263 56.4961 39.5115 56.0733C38.7968 55.6509 38.2355 55.2548 37.8263 54.8844C37.4173 54.5146 37.0873 54.3294 36.8361 54.3294C36.457 54.3294 36.1205 54.5304 35.8255 54.9321C35.5306 55.3336 35.3838 55.7353 35.3838 56.1368C35.3838 56.7788 35.7455 57.4113 36.469 58.0349L50.3356 71.9016H81.9924L48.8768 38.7858Z" fill="url(#paint4_linear)"/>
<path d="M35.3842 56.1368C35.3842 55.7353 35.531 55.3338 35.8258 54.9321C36.1207 54.5306 36.4572 54.3296 36.8365 54.3296C37.0877 54.3296 37.4178 54.5148 37.8267 54.8846C38.2357 55.2549 38.7972 55.6509 39.5118 56.0734C40.2267 56.4964 41.053 56.7391 41.9917 56.8026V49.3528C41.3563 49.1204 40.8688 48.9353 40.5303 48.7978C40.1913 48.6608 39.7412 48.4598 39.1803 48.1956C38.619 47.9316 38.1845 47.6566 37.8778 47.3711C37.5705 47.0858 37.2475 46.7423 36.909 46.3408C36.57 45.9393 36.3262 45.4691 36.1783 44.9301C36.03 44.3911 35.956 43.7939 35.956 43.1388C35.956 41.2993 36.5327 39.9024 37.6873 38.9494C38.8413 37.9964 40.2763 37.4246 41.9917 37.2341V36.3128C41.9917 36.1221 42.0815 35.9529 42.2617 35.8044C42.4413 35.6566 42.6588 35.5821 42.913 35.5821C43.1457 35.5821 43.3627 35.6566 43.5642 35.8044C43.7652 35.9528 43.866 36.1221 43.866 36.3128V37.1704C45.1575 37.2131 46.3488 37.4299 47.4398 37.8216C48.5303 38.2138 49.0758 38.7588 49.0758 39.4576C49.0758 39.8388 48.9473 40.2359 48.6912 40.6489C48.435 41.0619 48.093 41.2684 47.6662 41.2684C47.4975 41.2684 47.0333 41.0888 46.275 40.7284C45.516 40.3686 44.713 40.1566 43.8662 40.0931V46.5309C44.7085 46.8481 45.4088 47.1493 45.9667 47.4348C46.5245 47.7203 47.1148 48.1163 47.7362 48.6236C48.3577 49.1308 48.8262 49.7701 49.1418 50.5414C49.4575 51.3128 49.6158 52.2166 49.6158 53.2521C49.6158 55.1443 49.0997 56.6483 48.0677 57.7639C47.0353 58.8798 45.635 59.5653 43.866 59.8204V60.8816C43.866 61.0688 43.7652 61.2351 43.5642 61.3809C43.3628 61.5263 43.1458 61.5993 42.913 61.5993C42.6588 61.5993 42.4413 61.5263 42.2617 61.3813C42.0815 61.2353 41.9917 61.0691 41.9917 60.8819V59.9156C40.1493 59.8943 38.5872 59.4729 37.306 58.6509C36.0245 57.8289 35.3842 56.9911 35.3842 56.1368ZM39.101 42.8219C39.101 43.6464 39.3575 44.2753 39.8713 44.7081C40.3845 45.1414 41.1548 45.5484 42.1823 45.9286V40.1534C40.1278 40.4076 39.101 41.2971 39.101 42.8219ZM43.6753 56.7389C45.5387 56.4009 46.4708 55.3546 46.4708 53.6004C46.4708 52.6708 46.227 51.9416 45.7402 51.4134C45.2527 50.8853 44.5648 50.4306 43.6753 50.0499V56.7389Z" fill="url(#paint5_linear)"/>
<path d="M17.8228 50.373H9.28983C8.91783 50.373 8.61633 50.0715 8.61633 49.6995V47.482C8.61633 47.11 8.91783 46.8085 9.28983 46.8085H17.8228C18.1948 46.8085 18.4963 47.11 18.4963 47.482V49.6995C18.4963 50.0715 18.1948 50.373 17.8228 50.373Z" fill="#4AB272"/>
<path d="M22.6634 50.373H21.1921C20.8201 50.373 20.5186 50.0715 20.5186 49.6995V47.482C20.5186 47.11 20.8201 46.8085 21.1921 46.8085H22.6634C23.0354 46.8085 23.3369 47.11 23.3369 47.482V49.6995C23.3369 50.0715 23.0354 50.373 22.6634 50.373Z" fill="#4AB272"/>
<path d="M67.6692 50.373H62.3367C61.9647 50.373 61.6632 50.0715 61.6632 49.6995V47.482C61.6632 47.11 61.9647 46.8085 62.3367 46.8085H67.6692C68.0412 46.8085 68.3427 47.11 68.3427 47.482V49.6995C68.3427 50.0715 68.0412 50.373 67.6692 50.373Z" fill="#4AB272"/>
<path d="M75.7101 50.373H70.9784C70.6064 50.373 70.3049 50.0715 70.3049 49.6995V47.482C70.3049 47.11 70.6064 46.8085 70.9784 46.8085H75.7101C76.0821 46.8085 76.3836 47.11 76.3836 47.482V49.6995C76.3836 50.0715 76.0819 50.373 75.7101 50.373Z" fill="#4AB272"/>
<path d="M28.8567 25.2798H5.056L4.51567 25.8201C3.295 27.0408 3.79767 28.9758 5.18717 29.612C5.41617 30.0996 8.03934 32.7421 8.51867 32.9813L8.5175 44.93C8.5175 45.1146 8.54717 45.2588 8.60184 45.3711C8.73034 45.6348 27.3288 63.9388 35.4265 71.9016H75.4785L28.8567 25.2798Z" fill="url(#paint6_linear)"/>
<path d="M25.3903 32.1669L25.3891 44.9283C25.389 45.8639 24.6306 45.7586 23.695 45.7586L10.2118 45.7599C9.27614 45.7601 8.51763 45.8654 8.5178 44.9299L8.51897 32.1686C8.51913 30.8734 7.46913 29.8234 6.17397 29.8236C4.08447 29.8238 3.03847 27.2978 4.51597 25.8201L15.2976 15.0379C16.2136 14.1219 17.6986 14.1218 18.6143 15.0376L29.3943 25.8176C30.8716 27.2949 29.825 29.8211 27.7356 29.8214C26.4405 29.8216 25.3903 30.8718 25.3903 32.1669Z" fill="url(#paint7_linear)"/>
<path d="M10.4252 43.8524L10.4264 32.1683C10.4265 29.8233 8.51903 27.9156 6.17386 27.9159C5.9797 27.9159 5.8437 27.8249 5.76953 27.6458C5.6952 27.4664 5.72703 27.3061 5.86436 27.1688L16.6464 16.3866C16.7524 16.2806 16.8732 16.2584 16.9559 16.2584C17.0385 16.2584 17.1594 16.2806 17.2654 16.3866L28.0454 27.1668C28.1827 27.3039 28.2145 27.4644 28.1402 27.6438C28.0659 27.8231 27.9299 27.9141 27.7359 27.9141C25.3909 27.9143 23.4829 29.8223 23.4825 32.1673L23.4814 43.8513L10.4252 43.8524Z" fill="url(#paint8_linear)"/>
<path d="M23.6948 45.7587C24.6305 45.7586 25.389 45.8639 25.389 44.9284L25.3902 32.1671C25.3903 30.8719 26.4403 29.8217 27.7357 29.8216C29.825 29.8214 30.8717 27.2951 29.3943 25.8177L18.6143 15.0377C18.1565 14.5799 17.5562 14.3509 16.956 14.3511L16.953 45.7596L23.6948 45.7587Z" fill="url(#paint9_linear)"/>
</g>
<defs>
<linearGradient id="paint0_linear" x1="38.0337" y1="37.2913" x2="61.8652" y2="97.5828" gradientUnits="userSpaceOnUse">
<stop stop-color="#4AB272"/>
<stop offset="1" stop-color="#077565"/>
</linearGradient>
<linearGradient id="paint1_linear" x1="46.0847" y1="56.3016" x2="0.25503" y2="-42.283" gradientUnits="userSpaceOnUse">
<stop stop-color="#92F37F" stop-opacity="0"/>
<stop offset="1" stop-color="#FFEE83"/>
</linearGradient>
<linearGradient id="paint2_linear" x1="39.5566" y1="39.6626" x2="52.8306" y2="79.927" gradientUnits="userSpaceOnUse">
<stop stop-color="#92F37F"/>
<stop offset="1" stop-color="#4AB272"/>
</linearGradient>
<linearGradient id="paint3_linear" x1="54.9576" y1="56.6882" x2="6.08539" y2="24.9211" gradientUnits="userSpaceOnUse">
<stop stop-color="#92F37F"/>
<stop offset="1" stop-color="#4AB272"/>
</linearGradient>
<linearGradient id="paint4_linear" x1="53.9538" y1="56.9374" x2="19.5985" y2="41.7288" gradientUnits="userSpaceOnUse">
<stop stop-color="#4AB272" stop-opacity="0"/>
<stop offset="1" stop-color="#009245"/>
</linearGradient>
<linearGradient id="paint5_linear" x1="40.9567" y1="47.1994" x2="54.2643" y2="56.1618" gradientUnits="userSpaceOnUse">
<stop stop-color="#4AB272"/>
<stop offset="1" stop-color="#077565"/>
</linearGradient>
<linearGradient id="paint6_linear" x1="38.3762" y1="52.396" x2="14.0428" y2="10.9516" gradientUnits="userSpaceOnUse">
<stop stop-color="#4AB272" stop-opacity="0"/>
<stop offset="1" stop-color="#009245"/>
</linearGradient>
<linearGradient id="paint7_linear" x1="10.256" y1="27.8096" x2="29.415" y2="41.6346" gradientUnits="userSpaceOnUse">
<stop stop-color="#FFDA45"/>
<stop offset="1" stop-color="#FFA425"/>
</linearGradient>
<linearGradient id="paint8_linear" x1="20.2605" y1="33.1218" x2="-1.53064" y2="22.8736" gradientUnits="userSpaceOnUse">
<stop stop-color="#FFDA45" stop-opacity="0"/>
<stop offset="1" stop-color="#FFEE83"/>
</linearGradient>
<linearGradient id="paint9_linear" x1="22.7167" y1="27.5011" x2="2.38067" y2="57.8132" gradientUnits="userSpaceOnUse">
<stop stop-color="#FFDA45" stop-opacity="0"/>
<stop offset="1" stop-color="#B53759"/>
</linearGradient>
<clipPath id="clip0">
<rect width="85" height="85" fill="white" transform="translate(0 0.626282)"/>
</clipPath>
</defs>
</svg>
