<svg width="85" height="85" viewBox="0 0 85 85" fill="none" xmlns="http://www.w3.org/2000/svg">
<path d="M80.0117 77.9857H4.98827C2.23341 77.9857 0 75.7523 0 72.9974V20.7204C0 17.9654 2.23341 15.7322 4.98827 15.7322H80.0116C82.7666 15.7322 84.9998 17.9656 84.9998 20.7204V72.9974C85 75.7523 82.7666 77.9857 80.0117 77.9857Z" fill="url(#paint0_linear)"/>
<path d="M4.30977 43.269L39.0265 77.9857H80.0116C82.7666 77.9857 84.9998 75.7523 84.9998 72.9974V20.7204C84.9998 19.68 84.6809 18.7141 84.1359 17.9146C84.0839 17.838 84.0291 17.7635 83.973 17.6905C83.9611 17.6748 83.9486 17.6594 83.9365 17.6441C83.8904 17.5855 83.843 17.5278 83.7946 17.4711C83.7803 17.4547 83.766 17.4379 83.7516 17.4215C83.6988 17.3617 83.6445 17.3031 83.589 17.246C83.5799 17.2367 83.5711 17.2269 83.5618 17.2175C83.43 17.0838 83.2905 16.9578 83.1443 16.8396C83.1272 16.8257 83.1094 16.8122 83.092 16.7985C83.0362 16.7545 82.9793 16.7116 82.9215 16.6701C82.9009 16.6553 82.8801 16.6404 82.8594 16.626C82.7991 16.584 82.7377 16.5435 82.6756 16.5039C82.6592 16.4935 82.6427 16.4824 82.6261 16.4722C82.5458 16.4226 82.4639 16.3749 82.3806 16.33C82.3791 16.3291 82.3776 16.3285 82.3761 16.3276C82.2968 16.2848 82.2159 16.2446 82.1342 16.2061C82.1105 16.195 82.0866 16.1845 82.0627 16.1737C82.0014 16.146 81.9393 16.1194 81.8767 16.094C81.849 16.0829 81.8213 16.0718 81.7932 16.061C81.7295 16.0366 81.6652 16.0139 81.6003 15.9919C81.5756 15.9836 81.5512 15.9748 81.5261 15.9667C81.4366 15.9382 81.3462 15.9116 81.2545 15.888C81.2507 15.887 81.2466 15.8864 81.2427 15.8854C81.1559 15.8633 81.0679 15.844 80.9793 15.8266C80.9502 15.821 80.9208 15.8161 80.8914 15.811C80.8262 15.7994 80.7608 15.7887 80.6947 15.7798C80.6615 15.7753 80.6283 15.771 80.5953 15.7672C80.5287 15.7594 80.4618 15.7534 80.3946 15.7482C80.3643 15.7459 80.3345 15.7431 80.3041 15.7414C80.2075 15.7358 80.11 15.7323 80.0119 15.7323H4.98827C2.23341 15.7321 0 17.9655 0 20.7206V33.8896C0 37.6412 1.67244 41.0002 4.30977 43.269Z" fill="url(#paint1_linear)"/>
<path d="M27.8345 17.6609H26.4378C25.3542 17.6609 24.4758 16.7824 24.4758 15.6989V14.3022C24.4758 13.2187 25.3544 12.3403 26.4378 12.3403H27.8345C28.9181 12.3403 29.7965 13.2188 29.7965 14.3022V15.6989C29.7965 16.7825 28.9181 17.6609 27.8345 17.6609Z" fill="url(#paint2_linear)"/>
<path d="M58.5622 17.6609H57.1655C56.0817 17.6609 55.2035 16.7824 55.2035 15.6989V14.3022C55.2035 13.2187 56.082 12.3403 57.1655 12.3403H58.5622C59.6457 12.3403 60.5241 13.2188 60.5241 14.3022V15.6989C60.5243 16.7825 59.6457 17.6609 58.5622 17.6609Z" fill="url(#paint3_linear)"/>
<path d="M80.0117 15.7322H4.98827C2.23341 15.7322 0 17.9656 0 20.7206V33.8896C0 40.722 5.53861 46.2605 12.3708 46.2605H72.629C79.4614 46.2605 84.9998 40.7218 84.9998 33.8896V20.7206C85 17.9654 82.7666 15.7322 80.0117 15.7322Z" fill="url(#paint4_linear)"/>
<path d="M27.9681 42.7806C27.4687 42.2235 26.7459 41.8708 25.9387 41.8708H19.1548C17.6489 41.8708 16.4279 43.0917 16.4279 44.5977V47.3912C16.4279 48.1982 16.7805 48.9212 17.3376 49.4206L27.95 60.033C28.4494 60.5901 29.1722 60.9427 29.9794 60.9427H36.7634C38.2694 60.9427 39.4903 59.7218 39.4903 58.2158V55.4222C39.4903 54.6152 39.1376 53.8922 38.5805 53.3928L27.9681 42.7806Z" fill="url(#paint5_linear)"/>
<path d="M24.1243 47.2039L27.9941 45.6025C28.4008 45.4342 28.6659 45.0376 28.6659 44.5975C28.6659 43.0915 27.4451 41.8707 25.9391 41.8707H19.1551C17.6491 41.8707 16.4281 43.0915 16.4281 44.5976C16.4281 45.0376 16.6932 45.4344 17.1 45.6027L20.9698 47.2041C21.9797 47.6219 23.1142 47.6219 24.1243 47.2039Z" fill="url(#paint6_linear)"/>
<path d="M25.9389 50.1178H19.1548C17.6489 50.1178 16.4279 48.8969 16.4279 47.3908V44.5973C16.4279 43.0913 17.6487 41.8703 19.1548 41.8703H25.9389C27.4448 41.8703 28.6657 43.0912 28.6657 44.5973V47.3908C28.6657 48.8971 27.445 50.1178 25.9389 50.1178Z" fill="url(#paint7_linear)"/>
<path d="M16.8445 45.4515L21.5109 50.1179H25.9389C27.4448 50.1179 28.6657 48.897 28.6657 47.3909V44.5973C28.6657 43.8891 28.3936 43.2461 27.9508 42.7614L27.9506 42.7612C27.8885 42.6931 27.823 42.6284 27.7544 42.5668C27.7539 42.5665 27.7536 42.566 27.7531 42.5656C27.6862 42.5059 27.6164 42.4494 27.5441 42.3965C27.5407 42.394 27.5376 42.3915 27.5343 42.3892C27.4654 42.3392 27.3938 42.2929 27.3204 42.2494C27.3128 42.2449 27.3055 42.2401 27.2977 42.2356C27.2288 42.1957 27.1576 42.1595 27.085 42.1257C27.0721 42.1197 27.0593 42.1129 27.046 42.1069C26.9784 42.0767 26.9089 42.0505 26.8385 42.0257C26.8197 42.0191 26.8013 42.0113 26.7822 42.0052C26.7156 41.9834 26.6476 41.966 26.5788 41.9494C26.5553 41.9437 26.5325 41.9364 26.5086 41.9314C26.4401 41.9168 26.3702 41.9067 26.2999 41.8974C26.2754 41.8943 26.2518 41.8889 26.2271 41.8863C26.1324 41.8763 26.0363 41.8708 25.9389 41.8708H19.1545C17.6485 41.8708 16.4275 43.0917 16.4275 44.5978C16.428 44.9365 16.5864 45.2488 16.8445 45.4515Z" fill="url(#paint8_linear)"/>
<path d="M24.1243 47.2039L27.9941 45.6025C28.4008 45.4342 28.6659 45.0376 28.6659 44.5975C28.6659 43.0915 27.4451 41.8707 25.9391 41.8707H19.1551C17.6491 41.8707 16.4281 43.0915 16.4281 44.5976C16.4281 45.0376 16.6932 45.4344 17.1 45.6027L20.9698 47.2041C21.9797 47.6219 23.1142 47.6219 24.1243 47.2039Z" fill="url(#paint9_linear)"/>
<path d="M67.8743 42.7806C67.3749 42.2235 66.6521 41.8708 65.8449 41.8708H59.0608C57.5549 41.8708 56.3339 43.0917 56.3339 44.5977V47.3912C56.3339 48.1982 56.6865 48.9212 57.2436 49.4206L67.856 60.033C68.3554 60.5901 69.0782 60.9427 69.8854 60.9427H76.6694C78.1754 60.9427 79.3963 59.7218 79.3963 58.2158V55.4222C79.3963 54.6152 79.0436 53.8922 78.4865 53.3928L67.8743 42.7806Z" fill="url(#paint10_linear)"/>
<path d="M64.0304 47.2039L67.9002 45.6025C68.3069 45.4342 68.5721 45.0376 68.5721 44.5975C68.5721 43.0915 67.3512 41.8707 65.8453 41.8707H59.0612C57.5553 41.8707 56.3342 43.0915 56.3342 44.5976C56.3342 45.0376 56.5994 45.4344 57.0061 45.6027L60.8759 47.2041C61.8856 47.6219 63.0203 47.6219 64.0304 47.2039Z" fill="url(#paint11_linear)"/>
<path d="M65.8449 50.1178H59.0608C57.5549 50.1178 56.3339 48.8969 56.3339 47.3908V44.5973C56.3339 43.0913 57.5547 41.8703 59.0608 41.8703H65.8449C67.3508 41.8703 68.5717 43.0912 68.5717 44.5973V47.3908C68.572 48.8971 67.3512 50.1178 65.8449 50.1178Z" fill="url(#paint12_linear)"/>
<path d="M56.7508 45.4515L61.4172 50.1179H65.8451C67.3511 50.1179 68.5719 48.897 68.5719 47.3909V44.5973C68.5719 43.8891 68.2998 43.2461 67.8571 42.7614L67.8569 42.7612C67.7948 42.6931 67.7293 42.6284 67.6607 42.5668C67.6602 42.5665 67.6599 42.566 67.6594 42.5656C67.5925 42.5059 67.5227 42.4494 67.4503 42.3965C67.447 42.394 67.4439 42.3915 67.4406 42.3892C67.3717 42.3392 67.3001 42.2929 67.2267 42.2494C67.2191 42.2449 67.2118 42.2401 67.204 42.2356C67.1351 42.1957 67.0639 42.1595 66.9913 42.1257C66.9784 42.1197 66.9656 42.1129 66.9523 42.1069C66.8847 42.0767 66.8152 42.0505 66.7448 42.0257C66.726 42.0191 66.7076 42.0113 66.6885 42.0052C66.6219 41.9834 66.5539 41.966 66.4851 41.9494C66.4616 41.9437 66.4388 41.9364 66.4149 41.9314C66.3465 41.9168 66.2765 41.9067 66.2062 41.8974C66.1817 41.8943 66.1581 41.8889 66.1333 41.8863C66.0387 41.8763 65.9424 41.8708 65.8451 41.8708H59.0611C57.5552 41.8708 56.3341 43.0917 56.3341 44.5978C56.3343 44.9365 56.4925 45.2488 56.7508 45.4515Z" fill="url(#paint13_linear)"/>
<path d="M64.0304 47.2039L67.9002 45.6025C68.3069 45.4342 68.5721 45.0376 68.5721 44.5975C68.5721 43.0915 67.3512 41.8707 65.8453 41.8707H59.0612C57.5553 41.8707 56.3342 43.0915 56.3342 44.5976C56.3342 45.0376 56.5994 45.4344 57.0061 45.6027L60.8759 47.2041C61.8856 47.6219 63.0203 47.6219 64.0304 47.2039Z" fill="url(#paint14_linear)"/>
<path d="M0 59.6954V72.9974C0 75.7524 2.23341 77.9856 4.98827 77.9856H80.0116C82.7666 77.9856 84.9998 75.7522 84.9998 72.9974V59.6954H0Z" fill="url(#paint15_linear)"/>
<path d="M56.9995 14.7111C56.699 14.7111 56.3934 14.6618 56.0935 14.5576C52.3384 13.2527 47.511 12.5343 42.5 12.5343C37.489 12.5343 32.6618 13.2529 28.9065 14.5576C27.4676 15.0575 25.8938 14.2963 25.3934 12.8563C24.8931 11.4162 25.6547 9.84356 27.0948 9.34319C31.4175 7.84142 36.8882 7.01416 42.4998 7.01416C48.1115 7.01416 53.5824 7.84125 57.9049 9.34319C59.345 9.84356 60.1065 11.4162 59.6063 12.8563C59.2103 13.9963 58.142 14.7111 56.9995 14.7111Z" fill="url(#paint16_linear)"/>
<path d="M51.6577 67.9986C51.5602 67.8075 51.3636 67.675 51.1344 67.675H33.8658C33.5402 67.675 33.2762 67.9388 33.2762 68.2645V69.9624C33.2762 70.1916 33.4086 70.3882 33.5996 70.4856L41.0994 77.9854H61.6445L51.6577 67.9986Z" fill="url(#paint17_linear)"/>
<path d="M33.2762 68.2646V69.9624C33.2762 70.288 33.54 70.5519 33.8658 70.5519H51.1344C51.4599 70.5519 51.7239 70.2881 51.7239 69.9624V68.2646C51.7239 67.939 51.4601 67.675 51.1344 67.675H33.8658C33.5402 67.675 33.2762 67.939 33.2762 68.2646Z" fill="url(#paint18_linear)"/>
<defs>
<linearGradient id="paint0_linear" x1="5.85322" y1="46.8597" x2="100.893" y2="46.8597" gradientUnits="userSpaceOnUse">
<stop stop-color="#4D4D4D"/>
<stop offset="1" stop-color="#333333"/>
</linearGradient>
<linearGradient id="paint1_linear" x1="42.4991" y1="65.6821" x2="42.4991" y2="36.7644" gradientUnits="userSpaceOnUse">
<stop stop-color="#4D4D4D" stop-opacity="0"/>
<stop offset="1"/>
</linearGradient>
<linearGradient id="paint2_linear" x1="11.9312" y1="23.1506" x2="6.07801" y2="26.2875" gradientUnits="userSpaceOnUse">
<stop stop-color="#4D4D4D"/>
<stop offset="1" stop-color="#333333"/>
</linearGradient>
<linearGradient id="paint3_linear" x1="18.7875" y1="35.9437" x2="12.9343" y2="39.0807" gradientUnits="userSpaceOnUse">
<stop stop-color="#4D4D4D"/>
<stop offset="1" stop-color="#333333"/>
</linearGradient>
<linearGradient id="paint4_linear" x1="42.5232" y1="27.4663" x2="36.67" y2="62.8955" gradientUnits="userSpaceOnUse">
<stop stop-color="#4D4D4D"/>
<stop offset="1" stop-color="#333333"/>
</linearGradient>
<linearGradient id="paint5_linear" x1="36.713" y1="60.1618" x2="15.3301" y2="38.7789" gradientUnits="userSpaceOnUse">
<stop stop-color="#4D4D4D" stop-opacity="0"/>
<stop offset="1"/>
</linearGradient>
<linearGradient id="paint6_linear" x1="22.5465" y1="43.3293" x2="22.5465" y2="48.7542" gradientUnits="userSpaceOnUse">
<stop stop-color="#FCC344"/>
<stop offset="1" stop-color="#D48000"/>
</linearGradient>
<linearGradient id="paint7_linear" x1="22.5464" y1="47.9242" x2="22.5464" y2="50.6041" gradientUnits="userSpaceOnUse">
<stop stop-color="#FCC344"/>
<stop offset="1" stop-color="#D48000"/>
</linearGradient>
<linearGradient id="paint8_linear" x1="22.5464" y1="50.0275" x2="22.5464" y2="45.9393" gradientUnits="userSpaceOnUse">
<stop stop-color="#D48000" stop-opacity="0"/>
<stop offset="1" stop-color="#D48000"/>
</linearGradient>
<linearGradient id="paint9_linear" x1="22.5465" y1="44.4659" x2="22.5465" y2="47.8009" gradientUnits="userSpaceOnUse">
<stop stop-color="#FCC344"/>
<stop offset="1" stop-color="#D48000"/>
</linearGradient>
<linearGradient id="paint10_linear" x1="76.6185" y1="60.1621" x2="55.2356" y2="38.7792" gradientUnits="userSpaceOnUse">
<stop stop-color="#4D4D4D" stop-opacity="0"/>
<stop offset="1"/>
</linearGradient>
<linearGradient id="paint11_linear" x1="62.4517" y1="43.3293" x2="62.4517" y2="48.7542" gradientUnits="userSpaceOnUse">
<stop stop-color="#FCC344"/>
<stop offset="1" stop-color="#D48000"/>
</linearGradient>
<linearGradient id="paint12_linear" x1="62.4515" y1="47.9242" x2="62.4515" y2="50.6041" gradientUnits="userSpaceOnUse">
<stop stop-color="#FCC344"/>
<stop offset="1" stop-color="#D48000"/>
</linearGradient>
<linearGradient id="paint13_linear" x1="62.4519" y1="50.0275" x2="62.4519" y2="45.9393" gradientUnits="userSpaceOnUse">
<stop stop-color="#D48000" stop-opacity="0"/>
<stop offset="1" stop-color="#D48000"/>
</linearGradient>
<linearGradient id="paint14_linear" x1="62.4517" y1="44.4659" x2="62.4517" y2="47.8009" gradientUnits="userSpaceOnUse">
<stop stop-color="#FCC344"/>
<stop offset="1" stop-color="#D48000"/>
</linearGradient>
<linearGradient id="paint15_linear" x1="42.4991" y1="66.4804" x2="42.4991" y2="80.8517" gradientUnits="userSpaceOnUse">
<stop stop-color="#4D4D4D" stop-opacity="0"/>
<stop offset="1"/>
</linearGradient>
<linearGradient id="paint16_linear" x1="42.4991" y1="8.96633" x2="42.4991" y2="16.4765" gradientUnits="userSpaceOnUse">
<stop stop-color="#FCC344"/>
<stop offset="1" stop-color="#D48000"/>
</linearGradient>
<linearGradient id="paint17_linear" x1="47.4594" y1="77.6536" x2="47.4594" y2="63.6105" gradientUnits="userSpaceOnUse">
<stop stop-color="#1A1A1A" stop-opacity="0"/>
<stop offset="1"/>
</linearGradient>
<linearGradient id="paint18_linear" x1="42.4992" y1="67.9987" x2="42.4992" y2="70.5819" gradientUnits="userSpaceOnUse">
<stop stop-color="#FCC344"/>
<stop offset="1" stop-color="#D48000"/>
</linearGradient>
</defs>
</svg>
