<svg width="1189" height="149" viewBox="0 0 1189 149" fill="none" xmlns="http://www.w3.org/2000/svg">
<path d="M0.0085234 146V0.54545H60.0938C70.9839 0.54545 80.3826 2.67613 88.2898 6.9375C96.2443 11.1515 102.376 17.0464 106.685 24.6222C110.993 32.1506 113.148 40.91 113.148 50.9006C113.148 60.9384 110.946 69.7216 106.543 77.25C102.187 84.7311 95.9602 90.5312 87.8636 94.6506C79.767 98.7699 70.1553 100.83 59.0284 100.83H21.9545V73.1307H52.4943C57.7974 73.1307 62.2244 72.2074 65.7756 70.3608C69.3741 68.5142 72.0966 65.9337 73.9432 62.6193C75.7898 59.2576 76.7131 55.3513 76.7131 50.9006C76.7131 46.4025 75.7898 42.5199 73.9432 39.2528C72.0966 35.9384 69.3741 33.3816 65.7756 31.5824C62.1771 29.7831 57.75 28.8835 52.4943 28.8835H35.1648V146H0.0085234ZM157.324 147.847C150.364 147.847 144.185 146.687 138.787 144.366C133.437 141.999 129.199 138.448 126.074 133.713C122.996 128.931 121.457 122.941 121.457 115.744C121.457 109.684 122.523 104.57 124.653 100.403C126.784 96.2367 129.72 92.8513 133.46 90.2472C137.201 87.643 141.509 85.678 146.386 84.3523C151.263 82.9792 156.472 82.0559 162.011 81.5824C168.214 81.0142 173.209 80.4223 176.997 79.8068C180.785 79.1439 183.531 78.2206 185.236 77.0369C186.988 75.8059 187.864 74.0776 187.864 71.8523V71.4972C187.864 67.8513 186.609 65.0341 184.099 63.0455C181.59 61.0568 178.205 60.0625 173.943 60.0625C169.35 60.0625 165.657 61.0568 162.864 63.0455C160.07 65.0341 158.295 67.7803 157.537 71.2841L125.506 70.1477C126.453 63.5189 128.891 57.6004 132.821 52.392C136.798 47.1364 142.243 43.017 149.156 40.0341C156.116 37.0038 164.473 35.4886 174.227 35.4886C181.188 35.4886 187.603 36.3172 193.474 37.9744C199.346 39.5843 204.459 41.9517 208.815 45.0767C213.171 48.1544 216.533 51.9422 218.901 56.4403C221.315 60.9384 222.523 66.0758 222.523 71.8523V146H189.852V130.801H189C187.059 134.494 184.573 137.619 181.543 140.176C178.56 142.733 175.032 144.651 170.96 145.929C166.936 147.207 162.39 147.847 157.324 147.847ZM168.048 125.119C171.789 125.119 175.151 124.362 178.134 122.847C181.164 121.331 183.579 119.248 185.378 116.597C187.177 113.898 188.077 110.773 188.077 107.222V96.8523C187.082 97.3731 185.875 97.8466 184.455 98.2727C183.081 98.6989 181.566 99.1013 179.909 99.4801C178.252 99.8589 176.547 100.19 174.795 100.474C173.044 100.759 171.363 101.019 169.753 101.256C166.486 101.777 163.692 102.581 161.372 103.67C159.099 104.759 157.348 106.18 156.116 107.932C154.933 109.636 154.341 111.672 154.341 114.04C154.341 117.638 155.619 120.384 158.176 122.278C160.78 124.172 164.071 125.119 168.048 125.119ZM294.682 148.06C283.176 148.06 273.304 145.692 265.065 140.957C256.874 136.223 250.577 129.641 246.173 121.213C241.77 112.738 239.568 102.937 239.568 91.8097C239.568 80.6354 241.77 70.8343 246.173 62.4062C250.624 53.9309 256.945 47.3258 265.136 42.5909C273.375 37.8561 283.2 35.4886 294.611 35.4886C304.696 35.4886 313.479 37.3116 320.96 40.9574C328.489 44.6032 334.36 49.7642 338.574 56.4403C342.835 63.0691 345.084 70.858 345.321 79.8068H312.864C312.201 74.2197 310.307 69.84 307.182 66.6676C304.104 63.4953 300.08 61.9091 295.108 61.9091C291.083 61.9091 287.556 63.0455 284.526 65.3182C281.495 67.5436 279.128 70.858 277.423 75.2614C275.766 79.6174 274.938 85.0151 274.938 91.4545C274.938 97.8939 275.766 103.339 277.423 107.79C279.128 112.193 281.495 115.531 284.526 117.804C287.556 120.029 291.083 121.142 295.108 121.142C298.328 121.142 301.169 120.455 303.631 119.082C306.14 117.709 308.2 115.697 309.81 113.045C311.42 110.347 312.438 107.08 312.864 103.244H345.321C344.99 112.241 342.741 120.1 338.574 126.824C334.455 133.547 328.654 138.779 321.173 142.52C313.74 146.213 304.909 148.06 294.682 148.06ZM363.094 146V36.9091H461.603V146H428.719V63.4716H395.552V146H363.094ZM516.486 101.043L551.358 36.9091H584.739V146H551.855V81.6534L517.054 146H483.602V36.9091H516.486V101.043ZM657.768 148.06C646.262 148.06 636.39 145.692 628.151 140.957C619.96 136.223 613.663 129.641 609.259 121.213C604.856 112.738 602.654 102.937 602.654 91.8097C602.654 80.6354 604.856 70.8343 609.259 62.4062C613.71 53.9309 620.031 47.3258 628.222 42.5909C636.461 37.8561 646.286 35.4886 657.697 35.4886C667.782 35.4886 676.565 37.3116 684.046 40.9574C691.575 44.6032 697.446 49.7642 701.66 56.4403C705.921 63.0691 708.17 70.858 708.407 79.8068H675.95C675.287 74.2197 673.393 69.84 670.268 66.6676C667.19 63.4953 663.165 61.9091 658.194 61.9091C654.169 61.9091 650.642 63.0455 647.612 65.3182C644.581 67.5436 642.214 70.858 640.509 75.2614C638.852 79.6174 638.023 85.0151 638.023 91.4545C638.023 97.8939 638.852 103.339 640.509 107.79C642.214 112.193 644.581 115.531 647.612 117.804C650.642 120.029 654.169 121.142 658.194 121.142C661.414 121.142 664.254 120.455 666.717 119.082C669.226 117.709 671.286 115.697 672.896 113.045C674.505 110.347 675.523 107.08 675.95 103.244H708.407C708.076 112.241 705.826 120.1 701.66 126.824C697.54 133.547 691.74 138.779 684.259 142.52C676.826 146.213 667.995 148.06 657.768 148.06ZM756.933 147.847C749.973 147.847 743.794 146.687 738.396 144.366C733.046 141.999 728.808 138.448 725.683 133.713C722.606 128.931 721.067 122.941 721.067 115.744C721.067 109.684 722.132 104.57 724.263 100.403C726.393 96.2367 729.329 92.8513 733.07 90.2472C736.81 87.643 741.119 85.678 745.996 84.3523C750.873 82.9792 756.081 82.0559 761.621 81.5824C767.823 81.0142 772.819 80.4223 776.607 79.8068C780.394 79.1439 783.141 78.2206 784.845 77.0369C786.597 75.8059 787.473 74.0776 787.473 71.8523V71.4972C787.473 67.8513 786.218 65.0341 783.709 63.0455C781.199 61.0568 777.814 60.0625 773.553 60.0625C768.96 60.0625 765.267 61.0568 762.473 63.0455C759.679 65.0341 757.904 67.7803 757.146 71.2841L725.115 70.1477C726.062 63.5189 728.5 57.6004 732.43 52.392C736.408 47.1364 741.853 43.017 748.766 40.0341C755.726 37.0038 764.083 35.4886 773.837 35.4886C780.797 35.4886 787.213 36.3172 793.084 37.9744C798.955 39.5843 804.069 41.9517 808.425 45.0767C812.781 48.1544 816.143 51.9422 818.51 56.4403C820.925 60.9384 822.132 66.0758 822.132 71.8523V146H789.462V130.801H788.609C786.668 134.494 784.182 137.619 781.152 140.176C778.169 142.733 774.642 144.651 770.57 145.929C766.545 147.207 762 147.847 756.933 147.847ZM767.658 125.119C771.398 125.119 774.76 124.362 777.743 122.847C780.773 121.331 783.188 119.248 784.987 116.597C786.786 113.898 787.686 110.773 787.686 107.222V96.8523C786.692 97.3731 785.484 97.8466 784.064 98.2727C782.691 98.6989 781.176 99.1013 779.518 99.4801C777.861 99.8589 776.157 100.19 774.405 100.474C772.653 100.759 770.972 101.019 769.362 101.256C766.095 101.777 763.302 102.581 760.982 103.67C758.709 104.759 756.957 106.18 755.726 107.932C754.542 109.636 753.95 111.672 753.95 114.04C753.95 117.638 755.229 120.384 757.786 122.278C760.39 124.172 763.68 125.119 767.658 125.119ZM920.286 77.8892V104.381H864.32V77.8892H920.286ZM876.251 36.9091V146H843.368V36.9091H876.251ZM941.237 36.9091V146H908.567V36.9091H941.237ZM995.197 101.043L1030.07 36.9091H1063.45V146H1030.57V81.6534L995.765 146H962.313V36.9091H995.197V101.043ZM1136.55 148.06C1125.14 148.06 1115.29 145.811 1107 141.312C1098.77 136.767 1092.42 130.304 1087.97 121.923C1083.57 113.495 1081.37 103.481 1081.37 91.8807C1081.37 80.6117 1083.59 70.7633 1088.04 62.3352C1092.49 53.8598 1098.77 47.2784 1106.86 42.5909C1114.96 37.8561 1124.5 35.4886 1135.48 35.4886C1143.25 35.4886 1150.35 36.696 1156.79 39.1108C1163.23 41.5256 1168.79 45.1004 1173.48 49.8352C1178.17 54.5701 1181.81 60.4176 1184.42 67.3778C1187.02 74.2907 1188.33 82.2216 1188.33 91.1705V99.8352H1093.51V79.6648H1156.01C1155.96 75.9716 1155.09 72.6809 1153.38 69.7926C1151.68 66.9044 1149.33 64.6553 1146.35 63.0455C1143.42 61.3883 1140.03 60.5597 1136.19 60.5597C1132.31 60.5597 1128.83 61.4356 1125.75 63.1875C1122.68 64.892 1120.24 67.2358 1118.44 70.2188C1116.64 73.1544 1115.69 76.4924 1115.6 80.233V100.759C1115.6 105.209 1116.47 109.116 1118.23 112.477C1119.98 115.792 1122.46 118.372 1125.68 120.219C1128.9 122.065 1132.74 122.989 1137.19 122.989C1140.27 122.989 1143.06 122.562 1145.57 121.71C1148.08 120.858 1150.23 119.603 1152.03 117.946C1153.83 116.289 1155.18 114.253 1156.08 111.838L1187.97 112.761C1186.64 119.911 1183.73 126.137 1179.23 131.44C1174.78 136.696 1168.94 140.792 1161.69 143.727C1154.45 146.616 1146.07 148.06 1136.55 148.06Z" fill="black"/>
</svg>
